M48
; DRILL file {KiCad 7.0.7} date 2023 September 16, Saturday 21:00:43
; FORMAT={-:-/ absolute / metric / decimal}
; #@! TF.CreationDate,2023-09-16T21:00:43-07:00
; #@! TF.GenerationSoftware,Kicad,Pcbnew,7.0.7
; #@! TF.FileFunction,Plated,1,2,PTH
FMAT,2
METRIC
; #@! TA.AperFunction,Plated,PTH,ViaDrill
T1C0.400
; #@! TA.AperFunction,Plated,PTH,ComponentDrill
T2C0.400
; #@! TA.AperFunction,Plated,PTH,ComponentDrill
T3C1.000
; #@! TA.AperFunction,Plated,PTH,ComponentDrill
T4C1.020
%
G90
G05
T1
X-12.77Y-340.188
X-12.7Y-341.249
X-12.581Y-321.691
X-11.685Y-320.98
X-10.923Y-320.333
X-10.111Y-319.751
X-5.306Y-335.153
X1.397Y-342.011
X5.969Y-349.25
X12.319Y-334.843
X12.446Y-314.452
X12.7Y-301.498
X14.478Y-311.023
X15.494Y-288.036
X23.304Y-266.382
X31.623Y-271.78
X51.88Y-266.382
X52.832Y-270.002
X88.435Y-344.889
X120.015Y-366.307
X122.593Y-369.456
X149.11Y-360.16
X150.749Y-376.205
X150.876Y-374.803
X152.56Y-346.827
X153.67Y-330.2
X156.718Y-367.792
X156.845Y-293.878
X158.496Y-350.647
X158.877Y-337.566
X164.084Y-376.428
X164.103Y-374.669
X198.755Y-297.561
X222.25Y-320.675
X222.25Y-358.775
X244.856Y-291.846
X249.809Y-327.66
X257.556Y-368.062
X260.414Y-344.0
X374.65Y-276.987
X377.444Y-296.922
X378.333Y-314.706
X398.462Y-297.656
X406.908Y-276.479
X409.067Y-266.446
T2
X10.377Y-268.923
X12.759Y-345.123
X17.404Y-331.152
X17.521Y-326.072
X22.284Y-307.022
X29.427Y-287.972
X31.691Y-312.102
X36.571Y-345.123
X38.835Y-331.152
X38.953Y-268.923
X43.715Y-326.072
X48.477Y-307.022
X53.24Y-287.972
X58.002Y-268.923
X66.042Y-325.419
X70.651Y-306.935
X72.986Y-346.784
X75.26Y-288.451
X79.868Y-269.967
X85.103Y-327.717
X89.711Y-309.233
X94.32Y-290.749
X96.092Y-352.545
X98.928Y-272.265
X103.011Y-334.637
X106.29Y-360.329
X107.619Y-316.152
X112.228Y-297.668
X116.837Y-279.184
X120.919Y-341.556
X125.527Y-323.072
X125.552Y-362.344
X130.136Y-304.587
X134.745Y-286.103
X135.75Y-370.119
X139.403Y-346.164
X165.159Y-291.941
X165.159Y-310.991
X165.159Y-330.041
X165.159Y-349.091
X174.684Y-368.141
X179.329Y-373.221
X184.209Y-291.941
X184.209Y-310.991
X184.209Y-330.041
X184.209Y-349.091
X198.379Y-373.221
X203.259Y-291.941
X203.259Y-310.991
X203.259Y-330.041
X203.259Y-349.091
X203.259Y-368.141
X222.309Y-291.941
X222.309Y-330.041
X222.309Y-368.141
X231.934Y-306.446
X231.934Y-344.546
X248.486Y-349.592
X253.144Y-289.531
X257.752Y-308.015
X262.361Y-326.5
X266.97Y-344.984
X269.268Y-364.044
X271.052Y-282.612
X275.661Y-301.096
X280.269Y-319.58
X284.878Y-338.065
X288.96Y-275.693
X293.569Y-294.177
X298.177Y-312.661
X302.786Y-331.145
X305.66Y-352.516
X308.02Y-273.395
X312.629Y-291.879
X317.237Y-310.363
X321.846Y-328.847
X329.465Y-268.923
X334.227Y-287.972
X338.99Y-307.022
X341.371Y-345.123
X343.752Y-326.072
X348.515Y-268.923
X353.277Y-287.972
X358.04Y-307.022
X365.184Y-345.123
X367.565Y-268.923
X372.327Y-287.972
X374.709Y-326.072
X376.972Y-331.152
X384.234Y-326.072
X388.996Y-307.022
X390.584Y-349.091
X391.26Y-312.102
X396.14Y-268.923
X396.14Y-287.972
X400.785Y-274.002
X409.634Y-330.041
X409.634Y-349.091
X419.835Y-274.002
X428.684Y-268.923
X428.684Y-287.972
X428.684Y-307.022
X428.684Y-349.091
T3
X-12.954Y-346.837
X-10.414Y-346.837
X-7.874Y-346.837
X-5.334Y-346.837
X-2.794Y-346.837
X-0.254Y-346.837
X2.286Y-346.837
X4.826Y-346.837
T4
X-15.24Y-263.83
X-15.24Y-266.37
X-15.24Y-268.91
X-15.24Y-271.45
X-15.24Y-273.99
X-15.24Y-276.53
X-15.24Y-279.07
X-15.24Y-281.61
X-15.24Y-284.15
X-15.24Y-286.69
X-15.24Y-289.23
X-15.24Y-291.77
X-15.24Y-294.31
X-15.24Y-296.85
X-15.24Y-299.39
X-15.24Y-301.93
X-15.24Y-304.47
X-15.24Y-307.01
X-15.24Y-309.55
X-15.24Y-312.09
X2.54Y-263.83
X2.54Y-266.37
X2.54Y-268.91
X2.54Y-271.45
X2.54Y-273.99
X2.54Y-276.53
X2.54Y-279.07
X2.54Y-281.61
X2.54Y-284.15
X2.54Y-286.69
X2.54Y-289.23
X2.54Y-291.77
X2.54Y-294.31
X2.54Y-296.85
X2.54Y-299.39
X2.54Y-301.93
X2.54Y-304.47
X2.54Y-307.01
X2.54Y-309.55
X2.54Y-312.09
T0
M30
