G04 #@! TF.GenerationSoftware,KiCad,Pcbnew,7.0.7*
G04 #@! TF.CreationDate,2023-09-16T21:00:12-07:00*
G04 #@! TF.ProjectId,pcb,7063622e-6b69-4636-9164-5f7063625858,rev?*
G04 #@! TF.SameCoordinates,Original*
G04 #@! TF.FileFunction,Paste,Bot*
G04 #@! TF.FilePolarity,Positive*
%FSLAX46Y46*%
G04 Gerber Fmt 4.6, Leading zero omitted, Abs format (unit mm)*
G04 Created by KiCad (PCBNEW 7.0.7) date 2023-09-16 21:00:12*
%MOMM*%
%LPD*%
G01*
G04 APERTURE LIST*
G04 Aperture macros list*
%AMRotRect*
0 Rectangle, with rotation*
0 The origin of the aperture is its center*
0 $1 length*
0 $2 width*
0 $3 Rotation angle, in degrees counterclockwise*
0 Add horizontal line*
21,1,$1,$2,0,0,$3*%
G04 Aperture macros list end*
%ADD10R,2.550000X2.500000*%
%ADD11RotRect,2.550000X2.500000X14.000000*%
%ADD12RotRect,2.550000X2.500000X166.000000*%
%ADD13RotRect,2.550000X2.550000X166.000000*%
%ADD14R,2.550000X2.550000*%
%ADD15RotRect,2.550000X2.500000X346.000000*%
%ADD16R,2.500000X2.550000*%
%ADD17R,0.800000X1.900000*%
G04 APERTURE END LIST*
D10*
X409067000Y-266382500D03*
X396140000Y-268922500D03*
X42354500Y-285432500D03*
X29427500Y-287972500D03*
X409067000Y-285432500D03*
X396140000Y-287972500D03*
D11*
X281196296Y-358452034D03*
X269267765Y-364043909D03*
D12*
X122592569Y-369455795D03*
D13*
X135750064Y-370118568D03*
D10*
X401923250Y-304482500D03*
D14*
X388996250Y-307022500D03*
D10*
X387635750Y-323532500D03*
D14*
X374708750Y-326072500D03*
D15*
X138709689Y-363006878D03*
X125552194Y-362344105D03*
D10*
X187610750Y-365601250D03*
X174683750Y-368141250D03*
X30448250Y-323532500D03*
X17521250Y-326072500D03*
X35210800Y-304482500D03*
X22283800Y-307022500D03*
X25908000Y-333692500D03*
X38835000Y-331152500D03*
X23304500Y-266382500D03*
X10377500Y-268922500D03*
X51879500Y-266382500D03*
X38952500Y-268922500D03*
X70929500Y-266382500D03*
X58002500Y-268922500D03*
D11*
X265072364Y-283939423D03*
X253143833Y-289531298D03*
X282980421Y-277020294D03*
X271051890Y-282612169D03*
X300888478Y-270101165D03*
X288959947Y-275693040D03*
X319948688Y-267803070D03*
X308020157Y-273394945D03*
D10*
X66167000Y-285432500D03*
X53240000Y-287972500D03*
D11*
X269680976Y-302423556D03*
X257752445Y-308015431D03*
X287589033Y-295504427D03*
X275660502Y-301096302D03*
X305497090Y-288585299D03*
X293568559Y-294177174D03*
X324557300Y-286287203D03*
X312628769Y-291879078D03*
D10*
X61404500Y-304482500D03*
X48477500Y-307022500D03*
D11*
X274289588Y-320907690D03*
X262361057Y-326499565D03*
X292197645Y-313988561D03*
X280269114Y-319580436D03*
X310105702Y-307069432D03*
X298177171Y-312661307D03*
X329165912Y-304771337D03*
X317237381Y-310363212D03*
D10*
X56642000Y-323532500D03*
X43715000Y-326072500D03*
D11*
X278898200Y-339391823D03*
X266969669Y-344983698D03*
X296806257Y-332472695D03*
X284877726Y-338064570D03*
X260414067Y-344000436D03*
X248485536Y-349592311D03*
X314714314Y-325553566D03*
X302785783Y-331145441D03*
X333774525Y-323255470D03*
X321845994Y-328847345D03*
D10*
X406908000Y-276542500D03*
X419835000Y-274002500D03*
X361442000Y-266382500D03*
X348515000Y-268922500D03*
X380492000Y-266382500D03*
X367565000Y-268922500D03*
X366204500Y-285432500D03*
X353277500Y-287972500D03*
X387858000Y-276542500D03*
X400785000Y-274002500D03*
X385254500Y-285432500D03*
X372327500Y-287972500D03*
X342392000Y-266382500D03*
X329465000Y-268922500D03*
X347154500Y-285432500D03*
X334227500Y-287972500D03*
X351917000Y-304482500D03*
X338990000Y-307022500D03*
X370967000Y-304482500D03*
X358040000Y-307022500D03*
X378333000Y-314642500D03*
X391260000Y-312102500D03*
X356679500Y-323532500D03*
X343752500Y-326072500D03*
X422560750Y-346551250D03*
X409633750Y-349091250D03*
X364045500Y-333692500D03*
X376972500Y-331152500D03*
X403510750Y-346551250D03*
X390583750Y-349091250D03*
D15*
X112085957Y-272927780D03*
X98928462Y-272265007D03*
X93025747Y-270629685D03*
X79868252Y-269966912D03*
X147902071Y-286766038D03*
X134744576Y-286103265D03*
X83808523Y-307597952D03*
X70651028Y-306935179D03*
X138684847Y-323734305D03*
X125527352Y-323071532D03*
X88417135Y-289113818D03*
X75259640Y-288451045D03*
X125385402Y-298331042D03*
X112227907Y-297668269D03*
X107477345Y-291411914D03*
X94319850Y-290749141D03*
X102868733Y-309896047D03*
X89711238Y-309233274D03*
X120776790Y-316815176D03*
X107619295Y-316152403D03*
X143293459Y-305250171D03*
X130135964Y-304587398D03*
X129994014Y-279846909D03*
X116836519Y-279184136D03*
X79199910Y-326082085D03*
X66042415Y-325419312D03*
X116168178Y-335299310D03*
X103010683Y-334636537D03*
X152560368Y-346827051D03*
X139402873Y-346164278D03*
X134076235Y-342218438D03*
X120918740Y-341555665D03*
X98260121Y-328380181D03*
X85102626Y-327717408D03*
D12*
X93132569Y-359665795D03*
X106290064Y-360328568D03*
D10*
X422560750Y-327501250D03*
X409633750Y-330041250D03*
X441610750Y-346551250D03*
X428683750Y-349091250D03*
X235235750Y-327501250D03*
X222308750Y-330041250D03*
X216185750Y-327501250D03*
X203258750Y-330041250D03*
X235235750Y-365601250D03*
X222308750Y-368141250D03*
X441610750Y-285432500D03*
X428683750Y-287972500D03*
X178085750Y-289401250D03*
X165158750Y-291941250D03*
D16*
X234473750Y-357473250D03*
X231933750Y-344546250D03*
D10*
X216185750Y-289401250D03*
X203258750Y-291941250D03*
X185451750Y-375761250D03*
X198378750Y-373221250D03*
X197135750Y-308451250D03*
X184208750Y-310991250D03*
X216185750Y-365601250D03*
X203258750Y-368141250D03*
X216185750Y-308451250D03*
X203258750Y-310991250D03*
X178085750Y-346551250D03*
X165158750Y-349091250D03*
X178085750Y-308451250D03*
X165158750Y-310991250D03*
X216185750Y-346551250D03*
X203258750Y-349091250D03*
X178085750Y-327501250D03*
X165158750Y-330041250D03*
X235235750Y-289401250D03*
X222308750Y-291941250D03*
X197135750Y-327501250D03*
X184208750Y-330041250D03*
X166401750Y-375761250D03*
X179328750Y-373221250D03*
D16*
X234473750Y-319373250D03*
X231933750Y-306446250D03*
D10*
X197135750Y-289401250D03*
X184208750Y-291941250D03*
X197135750Y-346551250D03*
X184208750Y-349091250D03*
X441610750Y-304482500D03*
X428683750Y-307022500D03*
X441610750Y-266382500D03*
X428683750Y-268922500D03*
X4476750Y-333692500D03*
X17403750Y-331152500D03*
X25685750Y-342582500D03*
X12758750Y-345122500D03*
X49498250Y-342582500D03*
X36571250Y-345122500D03*
D11*
X317588486Y-346924293D03*
X305659955Y-352516168D03*
D10*
X397160750Y-323532500D03*
X384233750Y-326072500D03*
X378110750Y-342582500D03*
X365183750Y-345122500D03*
X354298250Y-342582500D03*
X341371250Y-345122500D03*
D15*
X109249049Y-353207367D03*
X96091554Y-352544594D03*
X86143882Y-347446602D03*
X72986387Y-346783829D03*
D10*
X18764250Y-314642500D03*
X31691250Y-312102500D03*
D17*
X12543750Y-312825000D03*
X14443750Y-312825000D03*
X13493750Y-315825000D03*
X416562500Y-293775000D03*
X418462500Y-293775000D03*
X417512500Y-296775000D03*
X402275000Y-277106250D03*
X404175000Y-277106250D03*
X403225000Y-280106250D03*
X425293750Y-354893750D03*
X427193750Y-354893750D03*
X426243750Y-357893750D03*
X402275000Y-331875000D03*
X404175000Y-331875000D03*
X403225000Y-334875000D03*
X399893750Y-316000000D03*
X401793750Y-316000000D03*
X400843750Y-319000000D03*
X387987500Y-293775000D03*
X389887500Y-293775000D03*
X388937500Y-296775000D03*
X383225000Y-274725000D03*
X385125000Y-274725000D03*
X384175000Y-277725000D03*
X359412500Y-350925000D03*
X361312500Y-350925000D03*
X360362500Y-353925000D03*
X339568750Y-331875000D03*
X341468750Y-331875000D03*
X340518750Y-334875000D03*
X334806250Y-312825000D03*
X336706250Y-312825000D03*
X335756250Y-315825000D03*
X330043750Y-293775000D03*
X331943750Y-293775000D03*
X330993750Y-296775000D03*
X325281250Y-275518750D03*
X327181250Y-275518750D03*
X326231250Y-278518750D03*
X325281250Y-353306250D03*
X327181250Y-353306250D03*
X326231250Y-356306250D03*
X320518750Y-335843750D03*
X322418750Y-335843750D03*
X321468750Y-338843750D03*
X315756250Y-316000000D03*
X317656250Y-316000000D03*
X316706250Y-319000000D03*
X311787500Y-297831250D03*
X313687500Y-297831250D03*
X312737500Y-300831250D03*
X307025000Y-279487500D03*
X308925000Y-279487500D03*
X307975000Y-282487500D03*
X241937500Y-374737500D03*
X243837500Y-374737500D03*
X242887500Y-377737500D03*
X239556250Y-359656250D03*
X241456250Y-359656250D03*
X240506250Y-362656250D03*
X239556250Y-340606250D03*
X241456250Y-340606250D03*
X240506250Y-343606250D03*
X239556250Y-319968750D03*
X241456250Y-319968750D03*
X240506250Y-322968750D03*
X237968750Y-297743750D03*
X239868750Y-297743750D03*
X238918750Y-300743750D03*
X217331250Y-374737500D03*
X219231250Y-374737500D03*
X218281250Y-377737500D03*
X216537500Y-357275000D03*
X218437500Y-357275000D03*
X217487500Y-360275000D03*
X217331250Y-338225000D03*
X219231250Y-338225000D03*
X218281250Y-341225000D03*
X216537500Y-319175000D03*
X218437500Y-319175000D03*
X217487500Y-322175000D03*
X218918750Y-297743750D03*
X220818750Y-297743750D03*
X219868750Y-300743750D03*
X147481250Y-373943750D03*
X149381250Y-373943750D03*
X148431250Y-376943750D03*
X152243750Y-358068750D03*
X154143750Y-358068750D03*
X153193750Y-361068750D03*
X137956250Y-335050000D03*
X139856250Y-335050000D03*
X138906250Y-338050000D03*
X142718750Y-316000000D03*
X144618750Y-316000000D03*
X143668750Y-319000000D03*
X146687500Y-297743750D03*
X148587500Y-297743750D03*
X147637500Y-300743750D03*
X112556250Y-362831250D03*
X114456250Y-362831250D03*
X113506250Y-365831250D03*
X114937500Y-346162500D03*
X116837500Y-346162500D03*
X115887500Y-349162500D03*
X119700000Y-327906250D03*
X121600000Y-327906250D03*
X120650000Y-330906250D03*
X124462500Y-309650000D03*
X126362500Y-309650000D03*
X125412500Y-312650000D03*
X129225000Y-291393750D03*
X131125000Y-291393750D03*
X130175000Y-294393750D03*
X54612500Y-350925000D03*
X56512500Y-350925000D03*
X55562500Y-353925000D03*
X30800000Y-350925000D03*
X32700000Y-350925000D03*
X31750000Y-353925000D03*
X59375000Y-331875000D03*
X61275000Y-331875000D03*
X60325000Y-334875000D03*
X42706250Y-333462500D03*
X44606250Y-333462500D03*
X43656250Y-336462500D03*
X64137500Y-312825000D03*
X66037500Y-312825000D03*
X65087500Y-315825000D03*
X45087500Y-312825000D03*
X46987500Y-312825000D03*
X46037500Y-315825000D03*
X68900000Y-293775000D03*
X70800000Y-293775000D03*
X69850000Y-296775000D03*
X49850000Y-293775000D03*
X51750000Y-293775000D03*
X50800000Y-296775000D03*
X73662500Y-274725000D03*
X75562500Y-274725000D03*
X74612500Y-277725000D03*
X54612500Y-274725000D03*
X56512500Y-274725000D03*
X55562500Y-277725000D03*
D10*
X235235750Y-356076250D03*
X222308750Y-358616250D03*
X235235750Y-317976250D03*
X222308750Y-320516250D03*
X411448250Y-294957500D03*
X398521250Y-297497500D03*
M02*
