M48
; DRILL file {KiCad 7.0.7} date 2023 September 16, Saturday 21:00:43
; FORMAT={-:-/ absolute / metric / decimal}
; #@! TF.CreationDate,2023-09-16T21:00:43-07:00
; #@! TF.GenerationSoftware,Kicad,Pcbnew,7.0.7
; #@! TF.FileFunction,NonPlated,1,2,NPTH
FMAT,2
METRIC
; #@! TA.AperFunction,NonPlated,NPTH,ComponentDrill
T1C1.500
; #@! TA.AperFunction,NonPlated,NPTH,ComponentDrill
T2C1.750
; #@! TA.AperFunction,NonPlated,NPTH,ComponentDrill
T3C1.800
; #@! TA.AperFunction,NonPlated,NPTH,ComponentDrill
T4C3.000
; #@! TA.AperFunction,NonPlated,NPTH,ComponentDrill
T5C3.048
; #@! TA.AperFunction,NonPlated,NPTH,ComponentDrill
T6C3.988
%
G90
G05
T1
X-8.775Y-266.99
X-3.925Y-266.99
T2
X5.239Y-328.613
X12.383Y-271.462
X14.764Y-347.662
X15.399Y-328.613
X19.526Y-309.562
X19.526Y-328.613
X22.543Y-271.462
X24.289Y-309.562
X24.924Y-347.662
X26.67Y-328.613
X29.686Y-309.562
X29.686Y-328.613
X31.432Y-290.512
X34.449Y-309.562
X36.83Y-328.613
X38.576Y-347.662
X40.957Y-271.462
X41.593Y-290.512
X45.72Y-328.613
X48.736Y-347.662
X50.482Y-309.562
X51.117Y-271.462
X55.245Y-290.512
X55.88Y-328.613
X60.008Y-271.462
X60.642Y-309.562
X65.405Y-290.512
X67.373Y-328.369
X70.167Y-271.462
X71.982Y-309.885
X74.317Y-349.733
X76.591Y-291.401
X77.232Y-330.827
X81.199Y-272.917
X81.84Y-312.343
X84.176Y-352.191
X86.434Y-330.667
X86.449Y-293.859
X91.042Y-312.183
X91.057Y-275.374
X95.101Y-354.921
X95.651Y-293.699
X96.292Y-333.125
X97.423Y-355.494
X100.259Y-275.215
X100.9Y-314.641
X104.342Y-337.586
X104.959Y-357.379
X105.509Y-296.157
X107.281Y-357.952
X108.95Y-319.102
X110.118Y-277.673
X113.559Y-300.618
X114.2Y-340.044
X118.167Y-282.134
X118.808Y-321.56
X122.25Y-344.505
X123.417Y-303.076
X124.561Y-364.711
X126.858Y-326.021
X126.883Y-365.294
X128.026Y-284.592
X131.467Y-307.537
X132.108Y-346.963
X134.419Y-367.169
X136.076Y-289.053
X136.717Y-328.479
X136.741Y-367.752
X140.734Y-349.114
X141.325Y-309.995
X145.934Y-291.511
X150.592Y-351.572
X167.164Y-294.481
X167.164Y-313.531
X167.164Y-332.581
X167.164Y-351.631
X167.164Y-370.681
X176.689Y-370.681
X177.324Y-294.481
X177.324Y-313.531
X177.324Y-332.581
X177.324Y-351.631
X177.324Y-370.681
X186.214Y-294.481
X186.214Y-313.531
X186.214Y-332.581
X186.214Y-351.631
X186.214Y-370.681
X186.849Y-370.681
X196.374Y-294.481
X196.374Y-313.531
X196.374Y-332.581
X196.374Y-351.631
X196.374Y-370.681
X205.264Y-294.481
X205.264Y-313.531
X205.264Y-332.581
X205.264Y-351.631
X205.264Y-370.681
X215.424Y-294.481
X215.424Y-313.531
X215.424Y-332.581
X215.424Y-351.631
X215.424Y-370.681
X224.314Y-294.481
X224.314Y-323.056
X224.314Y-332.581
X224.314Y-361.156
X224.314Y-370.681
X229.394Y-308.451
X229.394Y-318.611
X229.394Y-346.551
X229.394Y-356.711
X234.474Y-294.481
X234.474Y-323.056
X234.474Y-332.581
X234.474Y-361.156
X234.474Y-370.681
X251.045Y-351.572
X255.704Y-291.511
X260.312Y-309.995
X260.904Y-349.114
X264.921Y-328.479
X265.562Y-289.053
X269.53Y-346.963
X270.171Y-307.537
X271.828Y-366.023
X273.612Y-284.592
X274.779Y-326.021
X278.22Y-303.076
X279.388Y-344.505
X281.686Y-363.565
X282.829Y-321.56
X283.47Y-282.134
X287.438Y-340.044
X288.079Y-300.618
X291.52Y-277.673
X292.687Y-319.102
X296.128Y-296.157
X297.296Y-337.586
X300.737Y-314.641
X301.378Y-275.215
X305.346Y-333.125
X305.987Y-293.699
X308.22Y-354.496
X310.58Y-275.374
X310.595Y-312.183
X315.189Y-293.859
X315.204Y-330.667
X318.078Y-352.038
X319.797Y-312.343
X320.438Y-272.917
X324.406Y-330.827
X325.047Y-291.401
X329.656Y-309.885
X331.47Y-271.462
X334.264Y-328.369
X336.232Y-290.512
X340.995Y-309.562
X341.63Y-271.462
X343.376Y-347.662
X345.757Y-328.613
X346.392Y-290.512
X350.52Y-271.462
X351.155Y-309.562
X353.536Y-347.662
X355.282Y-290.512
X355.917Y-328.613
X360.045Y-309.562
X360.68Y-271.462
X364.808Y-328.613
X365.442Y-290.512
X367.189Y-347.662
X369.57Y-271.462
X370.205Y-309.562
X374.332Y-290.512
X374.967Y-328.613
X376.714Y-328.613
X377.349Y-347.662
X379.095Y-309.562
X379.73Y-271.462
X384.493Y-290.512
X386.239Y-328.613
X386.874Y-328.613
X388.62Y-271.462
X389.255Y-309.562
X391.001Y-309.562
X392.589Y-351.631
X396.399Y-328.613
X398.145Y-271.462
X398.145Y-290.512
X398.78Y-271.462
X400.526Y-300.037
X401.161Y-309.562
X402.749Y-351.631
X407.67Y-271.462
X408.305Y-271.462
X408.305Y-290.512
X410.686Y-300.037
X411.639Y-332.581
X411.639Y-351.631
X417.83Y-271.462
X421.799Y-332.581
X421.799Y-351.631
X430.689Y-271.462
X430.689Y-290.512
X430.689Y-309.562
X430.689Y-351.631
X440.849Y-271.462
X440.849Y-290.512
X440.849Y-309.562
X440.849Y-351.631
T3
X-9.075Y-263.96
X-3.625Y-263.96
T4
X7.779Y-333.692
X13.652Y-268.923
X14.129Y-331.152
X16.034Y-345.123
X20.002Y-266.382
X20.796Y-326.072
X22.066Y-314.642
X22.384Y-342.582
X25.559Y-307.022
X27.146Y-323.532
X28.416Y-312.102
X29.21Y-333.692
X31.909Y-304.482
X32.703Y-287.972
X35.56Y-331.152
X39.052Y-285.433
X39.846Y-345.123
X42.227Y-268.923
X46.196Y-342.582
X46.99Y-326.072
X48.578Y-266.382
X51.752Y-307.022
X53.34Y-323.532
X56.515Y-287.972
X58.102Y-304.482
X61.277Y-268.923
X62.865Y-285.433
X67.627Y-266.382
X69.22Y-326.212
X73.829Y-307.727
X75.996Y-325.283
X76.164Y-347.576
X78.437Y-289.243
X80.605Y-306.799
X82.94Y-346.648
X83.046Y-270.759
X85.213Y-288.315
X88.28Y-328.51
X89.822Y-269.831
X92.889Y-310.026
X95.056Y-327.581
X96.336Y-360.465
X97.498Y-291.541
X99.269Y-353.337
X99.665Y-309.097
X102.106Y-273.057
X103.112Y-359.536
X104.273Y-290.613
X106.045Y-352.409
X106.188Y-335.429
X108.882Y-272.129
X110.797Y-316.945
X112.964Y-334.5
X115.406Y-298.461
X117.573Y-316.016
X120.014Y-279.976
X122.181Y-297.532
X124.096Y-342.348
X125.796Y-370.255
X126.79Y-279.048
X128.705Y-323.864
X128.73Y-363.136
X130.872Y-341.42
X132.572Y-369.326
X133.314Y-305.38
X135.481Y-322.935
X135.506Y-362.208
X137.922Y-286.896
X140.09Y-304.451
X142.581Y-346.957
X144.698Y-285.967
X149.356Y-346.028
X168.434Y-291.941
X168.434Y-310.991
X168.434Y-330.041
X168.434Y-349.091
X169.704Y-375.761
X174.784Y-289.401
X174.784Y-308.451
X174.784Y-327.501
X174.784Y-346.551
X176.054Y-373.221
X177.959Y-368.141
X184.309Y-365.601
X187.484Y-291.941
X187.484Y-310.991
X187.484Y-330.041
X187.484Y-349.091
X188.754Y-375.761
X193.834Y-289.401
X193.834Y-308.451
X193.834Y-327.501
X193.834Y-346.551
X195.104Y-373.221
X206.534Y-291.941
X206.534Y-310.991
X206.534Y-330.041
X206.534Y-349.091
X206.534Y-368.141
X212.884Y-289.401
X212.884Y-308.451
X212.884Y-327.501
X212.884Y-346.551
X212.884Y-365.601
X225.584Y-291.941
X225.584Y-320.516
X225.584Y-330.041
X225.584Y-358.616
X225.584Y-368.141
X231.934Y-289.401
X231.934Y-309.721
X231.934Y-317.976
X231.934Y-327.501
X231.934Y-347.821
X231.934Y-356.076
X231.934Y-365.601
X234.474Y-316.071
X234.474Y-354.171
X251.663Y-348.8
X256.322Y-288.739
X257.21Y-344.799
X260.93Y-307.223
X261.868Y-284.738
X265.539Y-325.707
X266.477Y-303.222
X270.147Y-344.191
X271.086Y-321.707
X272.445Y-363.252
X274.23Y-281.82
X275.694Y-340.191
X277.992Y-359.251
X278.838Y-300.304
X279.777Y-277.819
X283.447Y-318.788
X284.385Y-296.303
X288.055Y-337.272
X288.994Y-314.787
X292.138Y-274.901
X293.602Y-333.272
X296.746Y-293.385
X297.685Y-270.9
X301.355Y-311.869
X302.293Y-289.384
X305.964Y-330.353
X306.902Y-307.868
X308.838Y-351.724
X311.198Y-272.603
X311.51Y-326.352
X314.385Y-347.723
X315.806Y-291.087
X316.745Y-268.602
X320.415Y-309.571
X321.353Y-287.086
X325.024Y-328.055
X325.962Y-305.57
X330.571Y-324.054
X332.74Y-268.923
X337.502Y-287.972
X339.09Y-266.382
X342.265Y-307.022
X343.852Y-285.433
X344.646Y-345.123
X347.027Y-326.072
X348.615Y-304.482
X350.996Y-342.582
X351.79Y-268.923
X353.377Y-323.532
X356.553Y-287.972
X358.14Y-266.382
X361.315Y-307.022
X362.902Y-285.433
X367.347Y-333.692
X367.665Y-304.482
X368.459Y-345.123
X370.84Y-268.923
X373.697Y-331.152
X374.809Y-342.582
X375.602Y-287.972
X377.19Y-266.382
X377.984Y-326.072
X381.635Y-314.642
X381.952Y-285.433
X384.334Y-323.532
X387.509Y-326.072
X387.985Y-312.102
X391.16Y-276.542
X392.271Y-307.022
X393.859Y-323.532
X393.859Y-349.091
X397.51Y-274.002
X398.621Y-304.482
X399.415Y-268.923
X399.415Y-287.972
X400.209Y-346.551
X401.796Y-297.498
X405.765Y-266.382
X405.765Y-285.433
X408.146Y-294.957
X410.21Y-276.542
X412.909Y-330.041
X412.909Y-349.091
X416.56Y-274.002
X419.259Y-327.501
X419.259Y-346.551
X431.959Y-268.923
X431.959Y-287.972
X431.959Y-307.022
X431.959Y-349.091
X438.309Y-266.382
X438.309Y-285.433
X438.309Y-304.482
X438.309Y-346.551
T5
X116.217Y-369.829
X118.539Y-370.412
X139.384Y-375.606
X141.706Y-376.188
X169.831Y-377.666
X193.707Y-377.666
X222.409Y-311.118
X222.409Y-334.994
X222.409Y-349.218
X222.409Y-373.094
X266.863Y-374.46
X290.03Y-368.684
X369.856Y-321.627
X384.143Y-302.577
X391.287Y-264.477
X393.732Y-321.627
X398.621Y-288.099
X398.621Y-311.976
X408.019Y-302.577
X415.163Y-264.477
T6
X10.319Y-328.613
X17.462Y-271.462
X19.844Y-347.662
X24.606Y-309.562
X24.606Y-328.613
X29.369Y-309.562
X31.75Y-328.613
X36.512Y-290.512
X43.656Y-347.662
X46.038Y-271.462
X50.8Y-328.613
X55.562Y-309.562
X60.325Y-290.512
X65.087Y-271.462
X72.302Y-329.598
X76.911Y-311.114
X79.246Y-350.962
X81.52Y-292.63
X86.128Y-274.145
X91.363Y-331.896
X95.971Y-313.412
X100.03Y-356.15
X100.58Y-294.928
X102.352Y-356.723
X105.189Y-276.444
X109.271Y-338.815
X113.879Y-320.331
X118.488Y-301.847
X119.904Y-355.042
X122.226Y-355.625
X123.097Y-283.363
X127.179Y-345.734
X129.49Y-365.94
X131.787Y-327.25
X131.812Y-366.523
X136.396Y-308.766
X141.005Y-290.282
X143.07Y-360.818
X145.393Y-361.401
X145.663Y-350.343
X169.831Y-362.426
X172.244Y-294.481
X172.244Y-313.531
X172.244Y-332.581
X172.244Y-351.631
X172.244Y-370.681
X181.769Y-370.681
X191.294Y-294.481
X191.294Y-313.531
X191.294Y-332.581
X191.294Y-351.631
X191.294Y-370.681
X193.707Y-362.426
X210.344Y-294.481
X210.344Y-313.531
X210.344Y-332.581
X210.344Y-351.631
X210.344Y-370.681
X229.394Y-294.481
X229.394Y-313.531
X229.394Y-323.056
X229.394Y-332.581
X229.394Y-351.631
X229.394Y-361.156
X229.394Y-370.681
X237.649Y-311.118
X237.649Y-334.994
X237.649Y-349.218
X237.649Y-373.094
X255.975Y-350.343
X260.633Y-290.282
X263.176Y-359.673
X265.241Y-308.766
X269.85Y-327.25
X274.459Y-345.734
X276.757Y-364.794
X278.541Y-283.363
X283.15Y-301.847
X286.343Y-353.897
X287.758Y-320.331
X292.367Y-338.815
X296.449Y-276.444
X301.058Y-294.928
X305.666Y-313.412
X310.275Y-331.896
X313.149Y-353.267
X315.509Y-274.145
X320.118Y-292.63
X324.726Y-311.114
X329.335Y-329.598
X336.55Y-271.462
X341.312Y-290.512
X346.075Y-309.562
X348.456Y-347.662
X350.837Y-328.613
X355.6Y-271.462
X360.363Y-290.512
X365.125Y-309.562
X369.856Y-336.868
X369.887Y-328.613
X372.269Y-347.662
X374.65Y-271.462
X379.412Y-290.512
X381.794Y-328.613
X384.143Y-317.817
X384.175Y-309.562
X391.287Y-279.717
X391.319Y-328.613
X393.7Y-271.462
X393.732Y-336.868
X396.081Y-309.562
X397.669Y-351.631
X403.225Y-271.462
X403.225Y-290.512
X405.606Y-300.037
X408.019Y-317.817
X412.75Y-271.462
X413.861Y-288.099
X413.861Y-311.976
X415.163Y-279.717
X416.719Y-332.581
X416.719Y-351.631
X435.769Y-271.462
X435.769Y-290.512
X435.769Y-309.562
X435.769Y-351.631
T0
M30
