G04 #@! TF.GenerationSoftware,KiCad,Pcbnew,7.0.7*
G04 #@! TF.CreationDate,2023-09-16T21:00:12-07:00*
G04 #@! TF.ProjectId,pcb,7063622e-6b69-4636-9164-5f7063625858,rev?*
G04 #@! TF.SameCoordinates,Original*
G04 #@! TF.FileFunction,Profile,NP*
%FSLAX46Y46*%
G04 Gerber Fmt 4.6, Leading zero omitted, Abs format (unit mm)*
G04 Created by KiCad (PCBNEW 7.0.7) date 2023-09-16 21:00:12*
%MOMM*%
%LPD*%
G01*
G04 APERTURE LIST*
G04 #@! TA.AperFunction,Profile*
%ADD10C,0.200000*%
G04 #@! TD*
G04 APERTURE END LIST*
D10*
X-18669000Y-355600000D02*
G75*
G03*
X-17081500Y-357187500I1587500J0D01*
G01*
X-17081500Y-261937500D02*
G75*
G03*
X-18669000Y-263525000I0J-1587500D01*
G01*
X74612500Y-261937500D02*
X-17081500Y-261937500D01*
X98425000Y-264318750D02*
X74612500Y-261937500D01*
X116681250Y-269081250D02*
X157162500Y-284956250D01*
X98425000Y-264318750D02*
X116681250Y-269081250D01*
X303212500Y-264318750D02*
X327025000Y-261937500D01*
X284956250Y-269081250D02*
X244475000Y-284956250D01*
X157162500Y-284956250D02*
X244475000Y-284956250D01*
X284956250Y-269081250D02*
X303212500Y-264318750D01*
X445293750Y-263525000D02*
G75*
G03*
X443706250Y-261937500I-1587500J0D01*
G01*
X443706250Y-361156250D02*
G75*
G03*
X445293750Y-359568750I0J1587500D01*
G01*
X327025000Y-261937500D02*
X443706250Y-261937500D01*
X445293750Y-359568750D02*
X445293750Y-263525000D01*
X443706250Y-361156250D02*
X331851000Y-361156250D01*
X331851000Y-361156250D02*
X254000000Y-380206250D01*
X147750000Y-380162500D02*
X55499000Y-357187500D01*
X-17081500Y-357187500D02*
X55499000Y-357187500D01*
X147750000Y-380162500D02*
X254000000Y-380206250D01*
X-18669000Y-263525000D02*
X-18669000Y-355600000D01*
M02*
