G04 #@! TF.GenerationSoftware,KiCad,Pcbnew,7.0.7*
G04 #@! TF.CreationDate,2023-09-16T21:00:12-07:00*
G04 #@! TF.ProjectId,pcb,7063622e-6b69-4636-9164-5f7063625858,rev?*
G04 #@! TF.SameCoordinates,Original*
G04 #@! TF.FileFunction,Soldermask,Bot*
G04 #@! TF.FilePolarity,Negative*
%FSLAX46Y46*%
G04 Gerber Fmt 4.6, Leading zero omitted, Abs format (unit mm)*
G04 Created by KiCad (PCBNEW 7.0.7) date 2023-09-16 21:00:12*
%MOMM*%
%LPD*%
G01*
G04 APERTURE LIST*
G04 Aperture macros list*
%AMRotRect*
0 Rectangle, with rotation*
0 The origin of the aperture is its center*
0 $1 length*
0 $2 width*
0 $3 Rotation angle, in degrees counterclockwise*
0 Add horizontal line*
21,1,$1,$2,0,0,$3*%
G04 Aperture macros list end*
%ADD10O,1.800000X1.800000*%
%ADD11O,1.500000X1.500000*%
%ADD12O,1.700000X1.700000*%
%ADD13R,3.500000X1.700000*%
%ADD14R,1.700000X1.700000*%
%ADD15R,2.550000X2.500000*%
%ADD16C,0.800000*%
%ADD17C,3.987800*%
%ADD18C,3.048000*%
%ADD19C,1.750000*%
%ADD20C,3.000000*%
%ADD21RotRect,2.550000X2.500000X14.000000*%
%ADD22RotRect,2.550000X2.500000X166.000000*%
%ADD23RotRect,2.550000X2.550000X166.000000*%
%ADD24R,2.550000X2.550000*%
%ADD25RotRect,2.550000X2.500000X346.000000*%
%ADD26R,2.500000X2.550000*%
%ADD27R,0.800000X1.900000*%
G04 APERTURE END LIST*
D10*
X-9075000Y-263960000D03*
X-3625000Y-263960000D03*
D11*
X-3925000Y-266990000D03*
X-8775000Y-266990000D03*
D12*
X2540000Y-263830000D03*
D13*
X3440000Y-263830000D03*
D12*
X2540000Y-266370000D03*
D13*
X3440000Y-266370000D03*
X3440000Y-268910000D03*
D14*
X2540000Y-268910000D03*
D12*
X2540000Y-271450000D03*
D13*
X3440000Y-271450000D03*
D12*
X2540000Y-273990000D03*
D13*
X3440000Y-273990000D03*
D12*
X2540000Y-276530000D03*
D13*
X3440000Y-276530000D03*
X3440000Y-279070000D03*
D12*
X2540000Y-279070000D03*
D14*
X2540000Y-281610000D03*
D13*
X3440000Y-281610000D03*
X3440000Y-284150000D03*
D12*
X2540000Y-284150000D03*
X2540000Y-286690000D03*
D13*
X3440000Y-286690000D03*
X3440000Y-289230000D03*
D12*
X2540000Y-289230000D03*
X2540000Y-291770000D03*
D13*
X3440000Y-291770000D03*
D14*
X2540000Y-294310000D03*
D13*
X3440000Y-294310000D03*
X3440000Y-296850000D03*
D12*
X2540000Y-296850000D03*
X2540000Y-299390000D03*
D13*
X3440000Y-299390000D03*
X3440000Y-301930000D03*
D12*
X2540000Y-301930000D03*
D13*
X3440000Y-304470000D03*
D12*
X2540000Y-304470000D03*
D13*
X3440000Y-307010000D03*
D14*
X2540000Y-307010000D03*
D12*
X2540000Y-309550000D03*
D13*
X3440000Y-309550000D03*
X3440000Y-312090000D03*
D12*
X2540000Y-312090000D03*
D13*
X-16140000Y-312090000D03*
D12*
X-15240000Y-312090000D03*
D13*
X-16140000Y-309550000D03*
D12*
X-15240000Y-309550000D03*
D13*
X-16140000Y-307010000D03*
D14*
X-15240000Y-307010000D03*
D12*
X-15240000Y-304470000D03*
D13*
X-16140000Y-304470000D03*
X-16140000Y-301930000D03*
D12*
X-15240000Y-301930000D03*
D13*
X-16140000Y-299390000D03*
D12*
X-15240000Y-299390000D03*
X-15240000Y-296850000D03*
D13*
X-16140000Y-296850000D03*
D14*
X-15240000Y-294310000D03*
D13*
X-16140000Y-294310000D03*
D12*
X-15240000Y-291770000D03*
D13*
X-16140000Y-291770000D03*
X-16140000Y-289230000D03*
D12*
X-15240000Y-289230000D03*
X-15240000Y-286690000D03*
D13*
X-16140000Y-286690000D03*
D12*
X-15240000Y-284150000D03*
D13*
X-16140000Y-284150000D03*
X-16140000Y-281610000D03*
D14*
X-15240000Y-281610000D03*
D13*
X-16140000Y-279070000D03*
D12*
X-15240000Y-279070000D03*
D13*
X-16140000Y-276530000D03*
D12*
X-15240000Y-276530000D03*
X-15240000Y-273990000D03*
D13*
X-16140000Y-273990000D03*
X-16140000Y-271450000D03*
D12*
X-15240000Y-271450000D03*
D13*
X-16140000Y-268910000D03*
D14*
X-15240000Y-268910000D03*
D13*
X-16140000Y-266370000D03*
D12*
X-15240000Y-266370000D03*
X-15240000Y-263830000D03*
D13*
X-16140000Y-263830000D03*
D15*
X409067000Y-266382500D03*
X396140000Y-268922500D03*
D16*
X396140000Y-268922500D03*
D17*
X415163000Y-279717500D03*
D18*
X415163000Y-264477500D03*
D19*
X408305000Y-271462500D03*
D20*
X405765000Y-266382500D03*
D17*
X403225000Y-271462500D03*
D20*
X399415000Y-268922500D03*
D19*
X398145000Y-271462500D03*
D17*
X391287000Y-279717500D03*
D18*
X391287000Y-264477500D03*
D15*
X42354500Y-285432500D03*
X29427500Y-287972500D03*
D16*
X29427500Y-287972500D03*
D19*
X41592500Y-290512500D03*
D20*
X39052500Y-285432500D03*
D17*
X36512500Y-290512500D03*
D20*
X32702500Y-287972500D03*
D19*
X31432500Y-290512500D03*
D15*
X409067000Y-285432500D03*
X396140000Y-287972500D03*
D16*
X396140000Y-287972500D03*
D19*
X408305000Y-290512500D03*
D20*
X405765000Y-285432500D03*
D17*
X403225000Y-290512500D03*
D20*
X399415000Y-287972500D03*
D19*
X398145000Y-290512500D03*
D21*
X281196296Y-358452034D03*
X269267765Y-364043909D03*
D16*
X269267765Y-364043909D03*
D18*
X290030007Y-368683896D03*
D17*
X286343117Y-353896589D03*
D19*
X281685894Y-363565481D03*
D20*
X277992380Y-359250860D03*
D17*
X276756792Y-364794444D03*
D20*
X272445484Y-363251615D03*
D19*
X271827690Y-366023407D03*
D18*
X266863226Y-374460023D03*
D17*
X263176336Y-359672716D03*
D22*
X122592569Y-369455795D03*
D23*
X135750064Y-370118568D03*
D16*
X135750064Y-370118568D03*
D17*
X119903675Y-355042145D03*
D18*
X116216785Y-369829452D03*
D19*
X124560898Y-364711037D03*
D20*
X125796486Y-370254621D03*
D17*
X129490000Y-365940000D03*
D20*
X132572345Y-369326274D03*
D19*
X134419102Y-367168963D03*
D17*
X143070456Y-360818272D03*
D18*
X139383566Y-375605579D03*
D15*
X401923250Y-304482500D03*
D24*
X388996250Y-307022500D03*
D16*
X388996250Y-307022500D03*
D17*
X408019250Y-317817500D03*
D18*
X408019250Y-302577500D03*
D19*
X401161250Y-309562500D03*
D20*
X398621250Y-304482500D03*
D17*
X396081250Y-309562500D03*
D20*
X392271250Y-307022500D03*
D19*
X391001250Y-309562500D03*
D17*
X384143250Y-317817500D03*
D18*
X384143250Y-302577500D03*
D15*
X387635750Y-323532500D03*
D24*
X374708750Y-326072500D03*
D16*
X374708750Y-326072500D03*
D17*
X393731750Y-336867500D03*
D18*
X393731750Y-321627500D03*
D19*
X386873750Y-328612500D03*
D20*
X384333750Y-323532500D03*
D17*
X381793750Y-328612500D03*
D20*
X377983750Y-326072500D03*
D19*
X376713750Y-328612500D03*
D17*
X369855750Y-336867500D03*
D18*
X369855750Y-321627500D03*
D25*
X138709689Y-363006878D03*
X125552194Y-362344105D03*
D16*
X125552194Y-362344105D03*
D18*
X141705824Y-376188252D03*
D17*
X145392714Y-361400945D03*
D19*
X136741360Y-367751636D03*
D20*
X135505772Y-362208052D03*
D17*
X131812258Y-366522673D03*
D20*
X128729913Y-363136399D03*
D19*
X126883156Y-365293710D03*
D18*
X118539043Y-370412125D03*
D17*
X122225933Y-355624818D03*
D15*
X187610750Y-365601250D03*
X174683750Y-368141250D03*
D16*
X174683750Y-368141250D03*
D18*
X193706750Y-377666250D03*
D17*
X193706750Y-362426250D03*
D19*
X186848750Y-370681250D03*
D20*
X184308750Y-365601250D03*
D17*
X181768750Y-370681250D03*
D20*
X177958750Y-368141250D03*
D19*
X176688750Y-370681250D03*
D18*
X169830750Y-377666250D03*
D17*
X169830750Y-362426250D03*
D15*
X30448250Y-323532500D03*
X17521250Y-326072500D03*
D16*
X17521250Y-326072500D03*
D19*
X29686250Y-328612500D03*
D20*
X27146250Y-323532500D03*
D17*
X24606250Y-328612500D03*
D20*
X20796250Y-326072500D03*
D19*
X19526250Y-328612500D03*
D15*
X35210800Y-304482500D03*
X22283800Y-307022500D03*
D16*
X22283800Y-307022500D03*
D19*
X34448800Y-309562500D03*
D20*
X31908800Y-304482500D03*
D17*
X29368800Y-309562500D03*
D20*
X25558800Y-307022500D03*
D19*
X24288800Y-309562500D03*
D15*
X25908000Y-333692500D03*
X38835000Y-331152500D03*
D16*
X38835000Y-331152500D03*
D19*
X26670000Y-328612500D03*
D20*
X29210000Y-333692500D03*
D17*
X31750000Y-328612500D03*
D20*
X35560000Y-331152500D03*
D19*
X36830000Y-328612500D03*
D15*
X23304500Y-266382500D03*
X10377500Y-268922500D03*
D16*
X10377500Y-268922500D03*
D19*
X22542500Y-271462500D03*
D20*
X20002500Y-266382500D03*
D17*
X17462500Y-271462500D03*
D20*
X13652500Y-268922500D03*
D19*
X12382500Y-271462500D03*
D15*
X51879500Y-266382500D03*
X38952500Y-268922500D03*
D16*
X38952500Y-268922500D03*
D19*
X51117500Y-271462500D03*
D20*
X48577500Y-266382500D03*
D17*
X46037500Y-271462500D03*
D20*
X42227500Y-268922500D03*
D19*
X40957500Y-271462500D03*
D15*
X70929500Y-266382500D03*
X58002500Y-268922500D03*
D16*
X58002500Y-268922500D03*
D19*
X70167500Y-271462500D03*
D20*
X67627500Y-266382500D03*
D17*
X65087500Y-271462500D03*
D20*
X61277500Y-268922500D03*
D19*
X60007500Y-271462500D03*
D21*
X265072364Y-283939423D03*
X253143833Y-289531298D03*
D16*
X253143833Y-289531298D03*
D19*
X265561962Y-289052870D03*
D20*
X261868448Y-284738249D03*
D17*
X260632860Y-290281833D03*
D20*
X256321552Y-288739004D03*
D19*
X255703758Y-291510796D03*
D21*
X282980421Y-277020294D03*
X271051890Y-282612169D03*
D16*
X271051890Y-282612169D03*
D19*
X283470019Y-282133741D03*
D20*
X279776505Y-277819120D03*
D17*
X278540917Y-283362704D03*
D20*
X274229609Y-281819875D03*
D19*
X273611815Y-284591667D03*
D21*
X300888478Y-270101165D03*
X288959947Y-275693040D03*
D16*
X288959947Y-275693040D03*
D19*
X301378076Y-275214612D03*
D20*
X297684562Y-270899991D03*
D17*
X296448974Y-276443575D03*
D20*
X292137666Y-274900746D03*
D19*
X291519872Y-277672538D03*
D21*
X319948688Y-267803070D03*
X308020157Y-273394945D03*
D16*
X308020157Y-273394945D03*
D19*
X320438286Y-272916517D03*
D20*
X316744772Y-268601896D03*
D17*
X315509184Y-274145480D03*
D20*
X311197876Y-272602651D03*
D19*
X310580082Y-275374443D03*
D15*
X66167000Y-285432500D03*
X53240000Y-287972500D03*
D16*
X53240000Y-287972500D03*
D19*
X65405000Y-290512500D03*
D20*
X62865000Y-285432500D03*
D17*
X60325000Y-290512500D03*
D20*
X56515000Y-287972500D03*
D19*
X55245000Y-290512500D03*
D21*
X269680976Y-302423556D03*
X257752445Y-308015431D03*
D16*
X257752445Y-308015431D03*
D19*
X270170574Y-307537003D03*
D20*
X266477060Y-303222382D03*
D17*
X265241472Y-308765966D03*
D20*
X260930164Y-307223137D03*
D19*
X260312370Y-309994929D03*
D21*
X287589033Y-295504427D03*
X275660502Y-301096302D03*
D16*
X275660502Y-301096302D03*
D19*
X288078631Y-300617874D03*
D20*
X284385117Y-296303253D03*
D17*
X283149529Y-301846837D03*
D20*
X278838221Y-300304008D03*
D19*
X278220427Y-303075800D03*
D21*
X305497090Y-288585299D03*
X293568559Y-294177174D03*
D16*
X293568559Y-294177174D03*
D19*
X305986688Y-293698746D03*
D20*
X302293174Y-289384125D03*
D17*
X301057586Y-294927709D03*
D20*
X296746278Y-293384880D03*
D19*
X296128484Y-296156672D03*
D21*
X324557300Y-286287203D03*
X312628769Y-291879078D03*
D16*
X312628769Y-291879078D03*
D19*
X325046898Y-291400650D03*
D20*
X321353384Y-287086029D03*
D17*
X320117796Y-292629613D03*
D20*
X315806488Y-291086784D03*
D19*
X315188694Y-293858576D03*
D15*
X61404500Y-304482500D03*
X48477500Y-307022500D03*
D16*
X48477500Y-307022500D03*
D19*
X60642500Y-309562500D03*
D20*
X58102500Y-304482500D03*
D17*
X55562500Y-309562500D03*
D20*
X51752500Y-307022500D03*
D19*
X50482500Y-309562500D03*
D21*
X274289588Y-320907690D03*
X262361057Y-326499565D03*
D16*
X262361057Y-326499565D03*
D19*
X274779186Y-326021137D03*
D20*
X271085672Y-321706516D03*
D17*
X269850084Y-327250100D03*
D20*
X265538776Y-325707271D03*
D19*
X264920982Y-328479063D03*
D21*
X292197645Y-313988561D03*
X280269114Y-319580436D03*
D16*
X280269114Y-319580436D03*
D19*
X292687243Y-319102008D03*
D20*
X288993729Y-314787387D03*
D17*
X287758141Y-320330971D03*
D20*
X283446833Y-318788142D03*
D19*
X282829039Y-321559934D03*
D21*
X310105702Y-307069432D03*
X298177171Y-312661307D03*
D16*
X298177171Y-312661307D03*
D19*
X310595300Y-312182879D03*
D20*
X306901786Y-307868258D03*
D17*
X305666198Y-313411842D03*
D20*
X301354890Y-311869013D03*
D19*
X300737096Y-314640805D03*
D21*
X329165912Y-304771337D03*
X317237381Y-310363212D03*
D16*
X317237381Y-310363212D03*
D19*
X329655510Y-309884784D03*
D20*
X325961996Y-305570163D03*
D17*
X324726408Y-311113747D03*
D20*
X320415100Y-309570918D03*
D19*
X319797306Y-312342710D03*
D15*
X56642000Y-323532500D03*
X43715000Y-326072500D03*
D16*
X43715000Y-326072500D03*
D19*
X55880000Y-328612500D03*
D20*
X53340000Y-323532500D03*
D17*
X50800000Y-328612500D03*
D20*
X46990000Y-326072500D03*
D19*
X45720000Y-328612500D03*
D21*
X278898200Y-339391823D03*
X266969669Y-344983698D03*
D16*
X266969669Y-344983698D03*
D19*
X279387798Y-344505270D03*
D20*
X275694284Y-340190649D03*
D17*
X274458696Y-345734233D03*
D20*
X270147388Y-344191404D03*
D19*
X269529594Y-346963196D03*
D21*
X296806257Y-332472695D03*
X284877726Y-338064570D03*
D16*
X284877726Y-338064570D03*
D19*
X297295855Y-337586142D03*
D20*
X293602341Y-333271521D03*
D17*
X292366753Y-338815105D03*
D20*
X288055445Y-337272276D03*
D19*
X287437651Y-340044068D03*
D21*
X260414067Y-344000436D03*
X248485536Y-349592311D03*
D16*
X248485536Y-349592311D03*
D19*
X260903665Y-349113883D03*
D20*
X257210151Y-344799262D03*
D17*
X255974563Y-350342846D03*
D20*
X251663255Y-348800017D03*
D19*
X251045461Y-351571809D03*
D21*
X314714314Y-325553566D03*
X302785783Y-331145441D03*
D16*
X302785783Y-331145441D03*
D19*
X315203912Y-330667013D03*
D20*
X311510398Y-326352392D03*
D17*
X310274810Y-331895976D03*
D20*
X305963502Y-330353147D03*
D19*
X305345708Y-333124939D03*
D21*
X333774525Y-323255470D03*
X321845994Y-328847345D03*
D16*
X321845994Y-328847345D03*
D19*
X334264123Y-328368917D03*
D20*
X330570609Y-324054296D03*
D17*
X329335021Y-329597880D03*
D20*
X325023713Y-328055051D03*
D19*
X324405919Y-330826843D03*
D15*
X406908000Y-276542500D03*
X419835000Y-274002500D03*
D16*
X419835000Y-274002500D03*
D19*
X407670000Y-271462500D03*
D20*
X410210000Y-276542500D03*
D17*
X412750000Y-271462500D03*
D20*
X416560000Y-274002500D03*
D19*
X417830000Y-271462500D03*
D15*
X361442000Y-266382500D03*
X348515000Y-268922500D03*
D16*
X348515000Y-268922500D03*
D19*
X360680000Y-271462500D03*
D20*
X358140000Y-266382500D03*
D17*
X355600000Y-271462500D03*
D20*
X351790000Y-268922500D03*
D19*
X350520000Y-271462500D03*
D15*
X380492000Y-266382500D03*
X367565000Y-268922500D03*
D16*
X367565000Y-268922500D03*
D19*
X379730000Y-271462500D03*
D20*
X377190000Y-266382500D03*
D17*
X374650000Y-271462500D03*
D20*
X370840000Y-268922500D03*
D19*
X369570000Y-271462500D03*
D15*
X366204500Y-285432500D03*
X353277500Y-287972500D03*
D16*
X353277500Y-287972500D03*
D19*
X365442500Y-290512500D03*
D20*
X362902500Y-285432500D03*
D17*
X360362500Y-290512500D03*
D20*
X356552500Y-287972500D03*
D19*
X355282500Y-290512500D03*
D15*
X387858000Y-276542500D03*
X400785000Y-274002500D03*
D16*
X400785000Y-274002500D03*
D19*
X388620000Y-271462500D03*
D20*
X391160000Y-276542500D03*
D17*
X393700000Y-271462500D03*
D20*
X397510000Y-274002500D03*
D19*
X398780000Y-271462500D03*
D15*
X385254500Y-285432500D03*
X372327500Y-287972500D03*
D16*
X372327500Y-287972500D03*
D19*
X384492500Y-290512500D03*
D20*
X381952500Y-285432500D03*
D17*
X379412500Y-290512500D03*
D20*
X375602500Y-287972500D03*
D19*
X374332500Y-290512500D03*
D15*
X342392000Y-266382500D03*
X329465000Y-268922500D03*
D16*
X329465000Y-268922500D03*
D19*
X341630000Y-271462500D03*
D20*
X339090000Y-266382500D03*
D17*
X336550000Y-271462500D03*
D20*
X332740000Y-268922500D03*
D19*
X331470000Y-271462500D03*
D15*
X347154500Y-285432500D03*
X334227500Y-287972500D03*
D16*
X334227500Y-287972500D03*
D19*
X346392500Y-290512500D03*
D20*
X343852500Y-285432500D03*
D17*
X341312500Y-290512500D03*
D20*
X337502500Y-287972500D03*
D19*
X336232500Y-290512500D03*
D15*
X351917000Y-304482500D03*
X338990000Y-307022500D03*
D16*
X338990000Y-307022500D03*
D19*
X351155000Y-309562500D03*
D20*
X348615000Y-304482500D03*
D17*
X346075000Y-309562500D03*
D20*
X342265000Y-307022500D03*
D19*
X340995000Y-309562500D03*
D15*
X370967000Y-304482500D03*
X358040000Y-307022500D03*
D16*
X358040000Y-307022500D03*
D19*
X370205000Y-309562500D03*
D20*
X367665000Y-304482500D03*
D17*
X365125000Y-309562500D03*
D20*
X361315000Y-307022500D03*
D19*
X360045000Y-309562500D03*
D15*
X378333000Y-314642500D03*
X391260000Y-312102500D03*
D16*
X391260000Y-312102500D03*
D19*
X379095000Y-309562500D03*
D20*
X381635000Y-314642500D03*
D17*
X384175000Y-309562500D03*
D20*
X387985000Y-312102500D03*
D19*
X389255000Y-309562500D03*
D15*
X356679500Y-323532500D03*
X343752500Y-326072500D03*
D16*
X343752500Y-326072500D03*
D19*
X355917500Y-328612500D03*
D20*
X353377500Y-323532500D03*
D17*
X350837500Y-328612500D03*
D20*
X347027500Y-326072500D03*
D19*
X345757500Y-328612500D03*
D15*
X422560750Y-346551250D03*
X409633750Y-349091250D03*
D16*
X409633750Y-349091250D03*
D19*
X421798750Y-351631250D03*
D20*
X419258750Y-346551250D03*
D17*
X416718750Y-351631250D03*
D20*
X412908750Y-349091250D03*
D19*
X411638750Y-351631250D03*
D15*
X364045500Y-333692500D03*
X376972500Y-331152500D03*
D16*
X376972500Y-331152500D03*
D19*
X364807500Y-328612500D03*
D20*
X367347500Y-333692500D03*
D17*
X369887500Y-328612500D03*
D20*
X373697500Y-331152500D03*
D19*
X374967500Y-328612500D03*
D15*
X403510750Y-346551250D03*
X390583750Y-349091250D03*
D16*
X390583750Y-349091250D03*
D19*
X402748750Y-351631250D03*
D20*
X400208750Y-346551250D03*
D17*
X397668750Y-351631250D03*
D20*
X393858750Y-349091250D03*
D19*
X392588750Y-351631250D03*
D25*
X112085957Y-272927780D03*
X98928462Y-272265007D03*
D16*
X98928462Y-272265007D03*
D19*
X110117628Y-277672538D03*
D20*
X108882040Y-272128954D03*
D17*
X105188526Y-276443575D03*
D20*
X102106181Y-273057301D03*
D19*
X100259424Y-275214612D03*
D25*
X93025747Y-270629685D03*
X79868252Y-269966912D03*
D16*
X79868252Y-269966912D03*
D19*
X91057418Y-275374443D03*
D20*
X89821830Y-269830859D03*
D17*
X86128316Y-274145480D03*
D20*
X83045971Y-270759206D03*
D19*
X81199214Y-272916517D03*
D25*
X147902071Y-286766038D03*
X134744576Y-286103265D03*
D16*
X134744576Y-286103265D03*
D19*
X145933742Y-291510796D03*
D20*
X144698154Y-285967212D03*
D17*
X141004640Y-290281833D03*
D20*
X137922295Y-286895559D03*
D19*
X136075538Y-289052870D03*
D25*
X83808523Y-307597952D03*
X70651028Y-306935179D03*
D16*
X70651028Y-306935179D03*
D19*
X81840194Y-312342710D03*
D20*
X80604606Y-306799126D03*
D17*
X76911092Y-311113747D03*
D20*
X73828747Y-307727473D03*
D19*
X71981990Y-309884784D03*
D25*
X138684847Y-323734305D03*
X125527352Y-323071532D03*
D16*
X125527352Y-323071532D03*
D19*
X136716518Y-328479063D03*
D20*
X135480930Y-322935479D03*
D17*
X131787416Y-327250100D03*
D20*
X128705071Y-323863826D03*
D19*
X126858314Y-326021137D03*
D25*
X88417135Y-289113818D03*
X75259640Y-288451045D03*
D16*
X75259640Y-288451045D03*
D19*
X86448806Y-293858576D03*
D20*
X85213218Y-288314992D03*
D17*
X81519704Y-292629613D03*
D20*
X78437359Y-289243339D03*
D19*
X76590602Y-291400650D03*
D25*
X125385402Y-298331042D03*
X112227907Y-297668269D03*
D16*
X112227907Y-297668269D03*
D19*
X123417073Y-303075800D03*
D20*
X122181485Y-297532216D03*
D17*
X118487971Y-301846837D03*
D20*
X115405626Y-298460563D03*
D19*
X113558869Y-300617874D03*
D25*
X107477345Y-291411914D03*
X94319850Y-290749141D03*
D16*
X94319850Y-290749141D03*
D19*
X105509016Y-296156672D03*
D20*
X104273428Y-290613088D03*
D17*
X100579914Y-294927709D03*
D20*
X97497569Y-291541435D03*
D19*
X95650812Y-293698746D03*
D25*
X102868733Y-309896047D03*
X89711238Y-309233274D03*
D16*
X89711238Y-309233274D03*
D19*
X100900404Y-314640805D03*
D20*
X99664816Y-309097221D03*
D17*
X95971302Y-313411842D03*
D20*
X92888957Y-310025568D03*
D19*
X91042200Y-312182879D03*
D25*
X120776790Y-316815176D03*
X107619295Y-316152403D03*
D16*
X107619295Y-316152403D03*
D19*
X118808461Y-321559934D03*
D20*
X117572873Y-316016350D03*
D17*
X113879359Y-320330971D03*
D20*
X110797014Y-316944697D03*
D19*
X108950257Y-319102008D03*
D25*
X143293459Y-305250171D03*
X130135964Y-304587398D03*
D16*
X130135964Y-304587398D03*
D19*
X141325130Y-309994929D03*
D20*
X140089542Y-304451345D03*
D17*
X136396028Y-308765966D03*
D20*
X133313683Y-305379692D03*
D19*
X131466926Y-307537003D03*
D25*
X129994014Y-279846909D03*
X116836519Y-279184136D03*
D16*
X116836519Y-279184136D03*
D19*
X128025685Y-284591667D03*
D20*
X126790097Y-279048083D03*
D17*
X123096583Y-283362704D03*
D20*
X120014238Y-279976430D03*
D19*
X118167481Y-282133741D03*
D25*
X79199910Y-326082085D03*
X66042415Y-325419312D03*
D16*
X66042415Y-325419312D03*
D19*
X77231581Y-330826843D03*
D20*
X75995993Y-325283259D03*
D17*
X72302479Y-329597880D03*
D20*
X69220134Y-326211606D03*
D19*
X67373377Y-328368917D03*
D25*
X116168178Y-335299310D03*
X103010683Y-334636537D03*
D16*
X103010683Y-334636537D03*
D19*
X114199849Y-340044068D03*
D20*
X112964261Y-334500484D03*
D17*
X109270747Y-338815105D03*
D20*
X106188402Y-335428831D03*
D19*
X104341645Y-337586142D03*
D25*
X152560368Y-346827051D03*
X139402873Y-346164278D03*
D16*
X139402873Y-346164278D03*
D19*
X150592039Y-351571809D03*
D20*
X149356451Y-346028225D03*
D17*
X145662937Y-350342846D03*
D20*
X142580592Y-346956572D03*
D19*
X140733835Y-349113883D03*
D25*
X134076235Y-342218438D03*
X120918740Y-341555665D03*
D16*
X120918740Y-341555665D03*
D19*
X132107906Y-346963196D03*
D20*
X130872318Y-341419612D03*
D17*
X127178804Y-345734233D03*
D20*
X124096459Y-342347959D03*
D19*
X122249702Y-344505270D03*
D25*
X98260121Y-328380181D03*
X85102626Y-327717408D03*
D16*
X85102626Y-327717408D03*
D19*
X96291792Y-333124939D03*
D20*
X95056204Y-327581355D03*
D17*
X91362690Y-331895976D03*
D20*
X88280345Y-328509702D03*
D19*
X86433588Y-330667013D03*
D22*
X93132569Y-359665795D03*
X106290064Y-360328568D03*
D16*
X106290064Y-360328568D03*
D19*
X95100898Y-354921037D03*
D20*
X96336486Y-360464621D03*
D17*
X100030000Y-356150000D03*
D20*
X103112345Y-359536274D03*
D19*
X104959102Y-357378963D03*
D15*
X422560750Y-327501250D03*
X409633750Y-330041250D03*
D16*
X409633750Y-330041250D03*
D19*
X421798750Y-332581250D03*
D20*
X419258750Y-327501250D03*
D17*
X416718750Y-332581250D03*
D20*
X412908750Y-330041250D03*
D19*
X411638750Y-332581250D03*
D15*
X441610750Y-346551250D03*
X428683750Y-349091250D03*
D16*
X428683750Y-349091250D03*
D19*
X440848750Y-351631250D03*
D20*
X438308750Y-346551250D03*
D17*
X435768750Y-351631250D03*
D20*
X431958750Y-349091250D03*
D19*
X430688750Y-351631250D03*
D15*
X235235750Y-327501250D03*
X222308750Y-330041250D03*
D16*
X222308750Y-330041250D03*
D19*
X234473750Y-332581250D03*
D20*
X231933750Y-327501250D03*
D17*
X229393750Y-332581250D03*
D20*
X225583750Y-330041250D03*
D19*
X224313750Y-332581250D03*
D15*
X216185750Y-327501250D03*
X203258750Y-330041250D03*
D16*
X203258750Y-330041250D03*
D19*
X215423750Y-332581250D03*
D20*
X212883750Y-327501250D03*
D17*
X210343750Y-332581250D03*
D20*
X206533750Y-330041250D03*
D19*
X205263750Y-332581250D03*
D15*
X235235750Y-365601250D03*
X222308750Y-368141250D03*
D16*
X222308750Y-368141250D03*
D19*
X234473750Y-370681250D03*
D20*
X231933750Y-365601250D03*
D17*
X229393750Y-370681250D03*
D20*
X225583750Y-368141250D03*
D19*
X224313750Y-370681250D03*
D15*
X441610750Y-285432500D03*
X428683750Y-287972500D03*
D16*
X428683750Y-287972500D03*
D19*
X440848750Y-290512500D03*
D20*
X438308750Y-285432500D03*
D17*
X435768750Y-290512500D03*
D20*
X431958750Y-287972500D03*
D19*
X430688750Y-290512500D03*
D15*
X178085750Y-289401250D03*
X165158750Y-291941250D03*
D16*
X165158750Y-291941250D03*
D19*
X177323750Y-294481250D03*
D20*
X174783750Y-289401250D03*
D17*
X172243750Y-294481250D03*
D20*
X168433750Y-291941250D03*
D19*
X167163750Y-294481250D03*
D26*
X234473750Y-357473250D03*
X231933750Y-344546250D03*
D16*
X231933750Y-344546250D03*
D19*
X229393750Y-356711250D03*
D20*
X234473750Y-354171250D03*
D17*
X229393750Y-351631250D03*
D20*
X231933750Y-347821250D03*
D19*
X229393750Y-346551250D03*
D15*
X216185750Y-289401250D03*
X203258750Y-291941250D03*
D16*
X203258750Y-291941250D03*
D19*
X215423750Y-294481250D03*
D20*
X212883750Y-289401250D03*
D17*
X210343750Y-294481250D03*
D20*
X206533750Y-291941250D03*
D19*
X205263750Y-294481250D03*
D15*
X185451750Y-375761250D03*
X198378750Y-373221250D03*
D16*
X198378750Y-373221250D03*
D19*
X186213750Y-370681250D03*
D20*
X188753750Y-375761250D03*
D17*
X191293750Y-370681250D03*
D20*
X195103750Y-373221250D03*
D19*
X196373750Y-370681250D03*
D15*
X197135750Y-308451250D03*
X184208750Y-310991250D03*
D16*
X184208750Y-310991250D03*
D19*
X196373750Y-313531250D03*
D20*
X193833750Y-308451250D03*
D17*
X191293750Y-313531250D03*
D20*
X187483750Y-310991250D03*
D19*
X186213750Y-313531250D03*
D15*
X216185750Y-365601250D03*
X203258750Y-368141250D03*
D16*
X203258750Y-368141250D03*
D19*
X215423750Y-370681250D03*
D20*
X212883750Y-365601250D03*
D17*
X210343750Y-370681250D03*
D20*
X206533750Y-368141250D03*
D19*
X205263750Y-370681250D03*
D15*
X216185750Y-308451250D03*
X203258750Y-310991250D03*
D16*
X203258750Y-310991250D03*
D19*
X215423750Y-313531250D03*
D20*
X212883750Y-308451250D03*
D17*
X210343750Y-313531250D03*
D20*
X206533750Y-310991250D03*
D19*
X205263750Y-313531250D03*
D15*
X178085750Y-346551250D03*
X165158750Y-349091250D03*
D16*
X165158750Y-349091250D03*
D19*
X177323750Y-351631250D03*
D20*
X174783750Y-346551250D03*
D17*
X172243750Y-351631250D03*
D20*
X168433750Y-349091250D03*
D19*
X167163750Y-351631250D03*
D15*
X178085750Y-308451250D03*
X165158750Y-310991250D03*
D16*
X165158750Y-310991250D03*
D19*
X177323750Y-313531250D03*
D20*
X174783750Y-308451250D03*
D17*
X172243750Y-313531250D03*
D20*
X168433750Y-310991250D03*
D19*
X167163750Y-313531250D03*
D15*
X216185750Y-346551250D03*
X203258750Y-349091250D03*
D16*
X203258750Y-349091250D03*
D19*
X215423750Y-351631250D03*
D20*
X212883750Y-346551250D03*
D17*
X210343750Y-351631250D03*
D20*
X206533750Y-349091250D03*
D19*
X205263750Y-351631250D03*
D15*
X178085750Y-327501250D03*
X165158750Y-330041250D03*
D16*
X165158750Y-330041250D03*
D19*
X177323750Y-332581250D03*
D20*
X174783750Y-327501250D03*
D17*
X172243750Y-332581250D03*
D20*
X168433750Y-330041250D03*
D19*
X167163750Y-332581250D03*
D15*
X235235750Y-289401250D03*
X222308750Y-291941250D03*
D16*
X222308750Y-291941250D03*
D19*
X234473750Y-294481250D03*
D20*
X231933750Y-289401250D03*
D17*
X229393750Y-294481250D03*
D20*
X225583750Y-291941250D03*
D19*
X224313750Y-294481250D03*
D15*
X197135750Y-327501250D03*
X184208750Y-330041250D03*
D16*
X184208750Y-330041250D03*
D19*
X196373750Y-332581250D03*
D20*
X193833750Y-327501250D03*
D17*
X191293750Y-332581250D03*
D20*
X187483750Y-330041250D03*
D19*
X186213750Y-332581250D03*
D15*
X166401750Y-375761250D03*
X179328750Y-373221250D03*
D16*
X179328750Y-373221250D03*
D19*
X167163750Y-370681250D03*
D20*
X169703750Y-375761250D03*
D17*
X172243750Y-370681250D03*
D20*
X176053750Y-373221250D03*
D19*
X177323750Y-370681250D03*
D26*
X234473750Y-319373250D03*
X231933750Y-306446250D03*
D16*
X231933750Y-306446250D03*
D19*
X229393750Y-318611250D03*
D20*
X234473750Y-316071250D03*
D17*
X229393750Y-313531250D03*
D20*
X231933750Y-309721250D03*
D19*
X229393750Y-308451250D03*
D15*
X197135750Y-289401250D03*
X184208750Y-291941250D03*
D16*
X184208750Y-291941250D03*
D19*
X196373750Y-294481250D03*
D20*
X193833750Y-289401250D03*
D17*
X191293750Y-294481250D03*
D20*
X187483750Y-291941250D03*
D19*
X186213750Y-294481250D03*
D15*
X197135750Y-346551250D03*
X184208750Y-349091250D03*
D16*
X184208750Y-349091250D03*
D19*
X196373750Y-351631250D03*
D20*
X193833750Y-346551250D03*
D17*
X191293750Y-351631250D03*
D20*
X187483750Y-349091250D03*
D19*
X186213750Y-351631250D03*
D15*
X441610750Y-304482500D03*
X428683750Y-307022500D03*
D16*
X428683750Y-307022500D03*
D19*
X440848750Y-309562500D03*
D20*
X438308750Y-304482500D03*
D17*
X435768750Y-309562500D03*
D20*
X431958750Y-307022500D03*
D19*
X430688750Y-309562500D03*
D15*
X441610750Y-266382500D03*
X428683750Y-268922500D03*
D16*
X428683750Y-268922500D03*
D19*
X440848750Y-271462500D03*
D20*
X438308750Y-266382500D03*
D17*
X435768750Y-271462500D03*
D20*
X431958750Y-268922500D03*
D19*
X430688750Y-271462500D03*
D15*
X4476750Y-333692500D03*
X17403750Y-331152500D03*
D16*
X17403750Y-331152500D03*
D19*
X5238750Y-328612500D03*
D20*
X7778750Y-333692500D03*
D17*
X10318750Y-328612500D03*
D20*
X14128750Y-331152500D03*
D19*
X15398750Y-328612500D03*
D15*
X25685750Y-342582500D03*
X12758750Y-345122500D03*
D16*
X12758750Y-345122500D03*
D19*
X24923750Y-347662500D03*
D20*
X22383750Y-342582500D03*
D17*
X19843750Y-347662500D03*
D20*
X16033750Y-345122500D03*
D19*
X14763750Y-347662500D03*
D15*
X49498250Y-342582500D03*
X36571250Y-345122500D03*
D16*
X36571250Y-345122500D03*
D19*
X48736250Y-347662500D03*
D20*
X46196250Y-342582500D03*
D17*
X43656250Y-347662500D03*
D20*
X39846250Y-345122500D03*
D19*
X38576250Y-347662500D03*
D21*
X317588486Y-346924293D03*
X305659955Y-352516168D03*
D16*
X305659955Y-352516168D03*
D19*
X318078084Y-352037740D03*
D20*
X314384570Y-347723119D03*
D17*
X313148982Y-353266703D03*
D20*
X308837674Y-351723874D03*
D19*
X308219880Y-354495666D03*
D15*
X397160750Y-323532500D03*
X384233750Y-326072500D03*
D16*
X384233750Y-326072500D03*
D19*
X396398750Y-328612500D03*
D20*
X393858750Y-323532500D03*
D17*
X391318750Y-328612500D03*
D20*
X387508750Y-326072500D03*
D19*
X386238750Y-328612500D03*
D15*
X378110750Y-342582500D03*
X365183750Y-345122500D03*
D16*
X365183750Y-345122500D03*
D19*
X377348750Y-347662500D03*
D20*
X374808750Y-342582500D03*
D17*
X372268750Y-347662500D03*
D20*
X368458750Y-345122500D03*
D19*
X367188750Y-347662500D03*
D15*
X354298250Y-342582500D03*
X341371250Y-345122500D03*
D16*
X341371250Y-345122500D03*
D19*
X353536250Y-347662500D03*
D20*
X350996250Y-342582500D03*
D17*
X348456250Y-347662500D03*
D20*
X344646250Y-345122500D03*
D19*
X343376250Y-347662500D03*
D25*
X109249049Y-353207367D03*
X96091554Y-352544594D03*
D16*
X96091554Y-352544594D03*
D19*
X107280720Y-357952125D03*
D20*
X106045132Y-352408541D03*
D17*
X102351618Y-356723162D03*
D20*
X99269273Y-353336888D03*
D19*
X97422516Y-355494199D03*
D25*
X86143882Y-347446602D03*
X72986387Y-346783829D03*
D16*
X72986387Y-346783829D03*
D19*
X84175553Y-352191360D03*
D20*
X82939965Y-346647776D03*
D17*
X79246451Y-350962397D03*
D20*
X76164106Y-347576123D03*
D19*
X74317349Y-349733434D03*
D15*
X18764250Y-314642500D03*
X31691250Y-312102500D03*
D16*
X31691250Y-312102500D03*
D19*
X19526250Y-309562500D03*
D20*
X22066250Y-314642500D03*
D17*
X24606250Y-309562500D03*
D20*
X28416250Y-312102500D03*
D19*
X29686250Y-309562500D03*
D27*
X12543750Y-312825000D03*
X14443750Y-312825000D03*
X13493750Y-315825000D03*
X416562500Y-293775000D03*
X418462500Y-293775000D03*
X417512500Y-296775000D03*
X402275000Y-277106250D03*
X404175000Y-277106250D03*
X403225000Y-280106250D03*
X425293750Y-354893750D03*
X427193750Y-354893750D03*
X426243750Y-357893750D03*
X402275000Y-331875000D03*
X404175000Y-331875000D03*
X403225000Y-334875000D03*
X399893750Y-316000000D03*
X401793750Y-316000000D03*
X400843750Y-319000000D03*
X387987500Y-293775000D03*
X389887500Y-293775000D03*
X388937500Y-296775000D03*
X383225000Y-274725000D03*
X385125000Y-274725000D03*
X384175000Y-277725000D03*
X359412500Y-350925000D03*
X361312500Y-350925000D03*
X360362500Y-353925000D03*
X339568750Y-331875000D03*
X341468750Y-331875000D03*
X340518750Y-334875000D03*
X334806250Y-312825000D03*
X336706250Y-312825000D03*
X335756250Y-315825000D03*
X330043750Y-293775000D03*
X331943750Y-293775000D03*
X330993750Y-296775000D03*
X325281250Y-275518750D03*
X327181250Y-275518750D03*
X326231250Y-278518750D03*
X325281250Y-353306250D03*
X327181250Y-353306250D03*
X326231250Y-356306250D03*
X320518750Y-335843750D03*
X322418750Y-335843750D03*
X321468750Y-338843750D03*
X315756250Y-316000000D03*
X317656250Y-316000000D03*
X316706250Y-319000000D03*
X311787500Y-297831250D03*
X313687500Y-297831250D03*
X312737500Y-300831250D03*
X307025000Y-279487500D03*
X308925000Y-279487500D03*
X307975000Y-282487500D03*
X241937500Y-374737500D03*
X243837500Y-374737500D03*
X242887500Y-377737500D03*
X239556250Y-359656250D03*
X241456250Y-359656250D03*
X240506250Y-362656250D03*
X239556250Y-340606250D03*
X241456250Y-340606250D03*
X240506250Y-343606250D03*
X239556250Y-319968750D03*
X241456250Y-319968750D03*
X240506250Y-322968750D03*
X237968750Y-297743750D03*
X239868750Y-297743750D03*
X238918750Y-300743750D03*
X217331250Y-374737500D03*
X219231250Y-374737500D03*
X218281250Y-377737500D03*
X216537500Y-357275000D03*
X218437500Y-357275000D03*
X217487500Y-360275000D03*
X217331250Y-338225000D03*
X219231250Y-338225000D03*
X218281250Y-341225000D03*
X216537500Y-319175000D03*
X218437500Y-319175000D03*
X217487500Y-322175000D03*
X218918750Y-297743750D03*
X220818750Y-297743750D03*
X219868750Y-300743750D03*
X147481250Y-373943750D03*
X149381250Y-373943750D03*
X148431250Y-376943750D03*
X152243750Y-358068750D03*
X154143750Y-358068750D03*
X153193750Y-361068750D03*
X137956250Y-335050000D03*
X139856250Y-335050000D03*
X138906250Y-338050000D03*
X142718750Y-316000000D03*
X144618750Y-316000000D03*
X143668750Y-319000000D03*
X146687500Y-297743750D03*
X148587500Y-297743750D03*
X147637500Y-300743750D03*
X112556250Y-362831250D03*
X114456250Y-362831250D03*
X113506250Y-365831250D03*
X114937500Y-346162500D03*
X116837500Y-346162500D03*
X115887500Y-349162500D03*
X119700000Y-327906250D03*
X121600000Y-327906250D03*
X120650000Y-330906250D03*
X124462500Y-309650000D03*
X126362500Y-309650000D03*
X125412500Y-312650000D03*
X129225000Y-291393750D03*
X131125000Y-291393750D03*
X130175000Y-294393750D03*
X54612500Y-350925000D03*
X56512500Y-350925000D03*
X55562500Y-353925000D03*
X30800000Y-350925000D03*
X32700000Y-350925000D03*
X31750000Y-353925000D03*
X59375000Y-331875000D03*
X61275000Y-331875000D03*
X60325000Y-334875000D03*
X42706250Y-333462500D03*
X44606250Y-333462500D03*
X43656250Y-336462500D03*
X64137500Y-312825000D03*
X66037500Y-312825000D03*
X65087500Y-315825000D03*
X45087500Y-312825000D03*
X46987500Y-312825000D03*
X46037500Y-315825000D03*
X68900000Y-293775000D03*
X70800000Y-293775000D03*
X69850000Y-296775000D03*
X49850000Y-293775000D03*
X51750000Y-293775000D03*
X50800000Y-296775000D03*
X73662500Y-274725000D03*
X75562500Y-274725000D03*
X74612500Y-277725000D03*
X54612500Y-274725000D03*
X56512500Y-274725000D03*
X55562500Y-277725000D03*
D15*
X235235750Y-356076250D03*
X222308750Y-358616250D03*
D17*
X237648750Y-373094250D03*
X237648750Y-349218250D03*
D19*
X234473750Y-361156250D03*
D20*
X231933750Y-356076250D03*
D17*
X229393750Y-361156250D03*
D20*
X225583750Y-358616250D03*
D19*
X224313750Y-361156250D03*
D18*
X222408750Y-373094250D03*
X222408750Y-349218250D03*
D14*
X-12954000Y-346837000D03*
D12*
X-10414000Y-346837000D03*
X-7874000Y-346837000D03*
X-5334000Y-346837000D03*
X-2794000Y-346837000D03*
X-254000Y-346837000D03*
X2286000Y-346837000D03*
X4826000Y-346837000D03*
D15*
X235235750Y-317976250D03*
X222308750Y-320516250D03*
D17*
X237648750Y-334994250D03*
X237648750Y-311118250D03*
D19*
X234473750Y-323056250D03*
D20*
X231933750Y-317976250D03*
D17*
X229393750Y-323056250D03*
D20*
X225583750Y-320516250D03*
D19*
X224313750Y-323056250D03*
D18*
X222408750Y-334994250D03*
X222408750Y-311118250D03*
D15*
X411448250Y-294957500D03*
X398521250Y-297497500D03*
D17*
X413861250Y-311975500D03*
X413861250Y-288099500D03*
D19*
X410686250Y-300037500D03*
D20*
X408146250Y-294957500D03*
D17*
X405606250Y-300037500D03*
D20*
X401796250Y-297497500D03*
D19*
X400526250Y-300037500D03*
D18*
X398621250Y-311975500D03*
X398621250Y-288099500D03*
M02*
