%TF.GenerationSoftware,KiCad,Pcbnew,7.0.7*%
%TF.CreationDate,2023-09-16T21:00:51-07:00*%
%TF.ProjectId,pcb,7063622e-6b69-4636-9164-5f7063625858,rev?*%
%TF.SameCoordinates,Original*%
%TF.FileFunction,Drillmap*%
%TF.FilePolarity,Positive*%
%FSLAX45Y45*%
G04 Gerber Fmt 4.5, Leading zero omitted, Abs format (unit mm)*
G04 Created by KiCad (PCBNEW 7.0.7) date 2023-09-16 21:00:51*
%MOMM*%
%LPD*%
G01*
G04 APERTURE LIST*
%ADD10C,0.200000*%
%ADD11C,0.040000*%
%ADD12C,0.100000*%
%ADD13C,0.102000*%
G04 APERTURE END LIST*
D10*
X-1866900Y-35560000D02*
G75*
G03*
X-1708150Y-35718750I158750J0D01*
G01*
X-1708150Y-26193750D02*
G75*
G03*
X-1866900Y-26352500I0J-158750D01*
G01*
X7461250Y-26193750D02*
X-1708150Y-26193750D01*
X9842500Y-26431875D02*
X7461250Y-26193750D01*
X11668125Y-26908125D02*
X15716250Y-28495625D01*
X9842500Y-26431875D02*
X11668125Y-26908125D01*
X30321250Y-26431875D02*
X32702500Y-26193750D01*
X28495625Y-26908125D02*
X24447500Y-28495625D01*
X15716250Y-28495625D02*
X24447500Y-28495625D01*
X28495625Y-26908125D02*
X30321250Y-26431875D01*
X44529375Y-26352500D02*
G75*
G03*
X44370625Y-26193750I-158750J0D01*
G01*
X44370625Y-36115625D02*
G75*
G03*
X44529375Y-35956875I0J158750D01*
G01*
X32702500Y-26193750D02*
X44370625Y-26193750D01*
X44529375Y-35956875D02*
X44529375Y-26352500D01*
X44370625Y-36115625D02*
X33185100Y-36115625D01*
X33185100Y-36115625D02*
X25400000Y-38020625D01*
X14775000Y-38016250D02*
X5549900Y-35718750D01*
X-1708150Y-35718750D02*
X5549900Y-35718750D01*
X14775000Y-38016250D02*
X25400000Y-38020625D01*
X-1866900Y-26352500D02*
X-1866900Y-35560000D01*
D11*
X-1296965Y-33998784D02*
X-1256965Y-34038784D01*
X-1256965Y-33998784D02*
X-1296965Y-34038784D01*
X-1290000Y-34104900D02*
X-1250000Y-34144900D01*
X-1250000Y-34104900D02*
X-1290000Y-34144900D01*
X-1278090Y-32149100D02*
X-1238090Y-32189100D01*
X-1238090Y-32149100D02*
X-1278090Y-32189100D01*
X-1188509Y-32077980D02*
X-1148509Y-32117980D01*
X-1148509Y-32077980D02*
X-1188509Y-32117980D01*
X-1112285Y-32013328D02*
X-1072285Y-32053328D01*
X-1072285Y-32013328D02*
X-1112285Y-32053328D01*
X-1031072Y-31955065D02*
X-991072Y-31995065D01*
X-991072Y-31955065D02*
X-1031072Y-31995065D01*
X-550600Y-33495300D02*
X-510600Y-33535300D01*
X-510600Y-33495300D02*
X-550600Y-33535300D01*
X119700Y-34181100D02*
X159700Y-34221100D01*
X159700Y-34181100D02*
X119700Y-34221100D01*
X576900Y-34905000D02*
X616900Y-34945000D01*
X616900Y-34905000D02*
X576900Y-34945000D01*
X1211900Y-33464300D02*
X1251900Y-33504300D01*
X1251900Y-33464300D02*
X1211900Y-33504300D01*
X1224600Y-31425200D02*
X1264600Y-31465200D01*
X1264600Y-31425200D02*
X1224600Y-31465200D01*
X1250000Y-30129800D02*
X1290000Y-30169800D01*
X1290000Y-30129800D02*
X1250000Y-30169800D01*
X1427800Y-31082300D02*
X1467800Y-31122300D01*
X1467800Y-31082300D02*
X1427800Y-31122300D01*
X1529400Y-28783600D02*
X1569400Y-28823600D01*
X1569400Y-28783600D02*
X1529400Y-28823600D01*
X2310450Y-26618250D02*
X2350450Y-26658250D01*
X2350450Y-26618250D02*
X2310450Y-26658250D01*
X3142300Y-27158000D02*
X3182300Y-27198000D01*
X3182300Y-27158000D02*
X3142300Y-27198000D01*
X5167950Y-26618250D02*
X5207950Y-26658250D01*
X5207950Y-26618250D02*
X5167950Y-26658250D01*
X5263200Y-26980200D02*
X5303200Y-27020200D01*
X5303200Y-26980200D02*
X5263200Y-27020200D01*
X8823548Y-34468852D02*
X8863548Y-34508852D01*
X8863548Y-34468852D02*
X8823548Y-34508852D01*
X11981500Y-36610670D02*
X12021500Y-36650670D01*
X12021500Y-36610670D02*
X11981500Y-36650670D01*
X12239257Y-36925580D02*
X12279257Y-36965580D01*
X12279257Y-36925580D02*
X12239257Y-36965580D01*
X14891025Y-35995975D02*
X14931025Y-36035975D01*
X14931025Y-35995975D02*
X14891025Y-36035975D01*
X15054900Y-37600535D02*
X15094900Y-37640535D01*
X15094900Y-37600535D02*
X15054900Y-37640535D01*
X15067600Y-37460315D02*
X15107600Y-37500315D01*
X15107600Y-37460315D02*
X15067600Y-37500315D01*
X15236037Y-34662705D02*
X15276037Y-34702705D01*
X15276037Y-34662705D02*
X15236037Y-34702705D01*
X15347000Y-33000000D02*
X15387000Y-33040000D01*
X15387000Y-33000000D02*
X15347000Y-33040000D01*
X15651800Y-36759200D02*
X15691800Y-36799200D01*
X15691800Y-36759200D02*
X15651800Y-36799200D01*
X15664500Y-29367800D02*
X15704500Y-29407800D01*
X15704500Y-29367800D02*
X15664500Y-29407800D01*
X15829600Y-35044700D02*
X15869600Y-35084700D01*
X15869600Y-35044700D02*
X15829600Y-35084700D01*
X15867700Y-33736600D02*
X15907700Y-33776600D01*
X15907700Y-33736600D02*
X15867700Y-33776600D01*
X16388400Y-37622800D02*
X16428400Y-37662800D01*
X16428400Y-37622800D02*
X16388400Y-37662800D01*
X16390286Y-37446886D02*
X16430286Y-37486886D01*
X16430286Y-37446886D02*
X16390286Y-37486886D01*
X19855500Y-29736100D02*
X19895500Y-29776100D01*
X19895500Y-29736100D02*
X19855500Y-29776100D01*
X22205000Y-32047500D02*
X22245000Y-32087500D01*
X22245000Y-32047500D02*
X22205000Y-32087500D01*
X22205000Y-35857500D02*
X22245000Y-35897500D01*
X22245000Y-35857500D02*
X22205000Y-35897500D01*
X24465600Y-29164600D02*
X24505600Y-29204600D01*
X24505600Y-29164600D02*
X24465600Y-29204600D01*
X24960900Y-32746000D02*
X25000900Y-32786000D01*
X25000900Y-32746000D02*
X24960900Y-32786000D01*
X25735600Y-36786250D02*
X25775600Y-36826250D01*
X25775600Y-36786250D02*
X25735600Y-36826250D01*
X26021407Y-34380044D02*
X26061407Y-34420044D01*
X26061407Y-34380044D02*
X26021407Y-34420044D01*
X37445000Y-27678700D02*
X37485000Y-27718700D01*
X37485000Y-27678700D02*
X37445000Y-27718700D01*
X37724400Y-29672230D02*
X37764400Y-29712230D01*
X37764400Y-29672230D02*
X37724400Y-29712230D01*
X37813300Y-31450600D02*
X37853300Y-31490600D01*
X37853300Y-31450600D02*
X37813300Y-31490600D01*
X39826250Y-29745625D02*
X39866250Y-29785625D01*
X39866250Y-29745625D02*
X39826250Y-29785625D01*
X40670800Y-27627900D02*
X40710800Y-27667900D01*
X40710800Y-27627900D02*
X40670800Y-27667900D01*
X40886700Y-26624600D02*
X40926700Y-26664600D01*
X40926700Y-26624600D02*
X40886700Y-26664600D01*
X1057750Y-26892250D02*
G75*
G03*
X1057750Y-26892250I-20000J0D01*
G01*
X1295875Y-34512250D02*
G75*
G03*
X1295875Y-34512250I-20000J0D01*
G01*
X1760375Y-33115250D02*
G75*
G03*
X1760375Y-33115250I-20000J0D01*
G01*
X1772125Y-32607250D02*
G75*
G03*
X1772125Y-32607250I-20000J0D01*
G01*
X2248380Y-30702250D02*
G75*
G03*
X2248380Y-30702250I-20000J0D01*
G01*
X2962750Y-28797250D02*
G75*
G03*
X2962750Y-28797250I-20000J0D01*
G01*
X3189125Y-31210250D02*
G75*
G03*
X3189125Y-31210250I-20000J0D01*
G01*
X3677125Y-34512250D02*
G75*
G03*
X3677125Y-34512250I-20000J0D01*
G01*
X3903500Y-33115250D02*
G75*
G03*
X3903500Y-33115250I-20000J0D01*
G01*
X3915250Y-26892250D02*
G75*
G03*
X3915250Y-26892250I-20000J0D01*
G01*
X4391500Y-32607250D02*
G75*
G03*
X4391500Y-32607250I-20000J0D01*
G01*
X4867750Y-30702250D02*
G75*
G03*
X4867750Y-30702250I-20000J0D01*
G01*
X5344000Y-28797250D02*
G75*
G03*
X5344000Y-28797250I-20000J0D01*
G01*
X5820250Y-26892250D02*
G75*
G03*
X5820250Y-26892250I-20000J0D01*
G01*
X6624241Y-32541931D02*
G75*
G03*
X6624241Y-32541931I-20000J0D01*
G01*
X7085103Y-30693518D02*
G75*
G03*
X7085103Y-30693518I-20000J0D01*
G01*
X7318639Y-34678383D02*
G75*
G03*
X7318639Y-34678383I-20000J0D01*
G01*
X7545964Y-28845104D02*
G75*
G03*
X7545964Y-28845104I-20000J0D01*
G01*
X8006825Y-26996691D02*
G75*
G03*
X8006825Y-26996691I-20000J0D01*
G01*
X8530263Y-32771741D02*
G75*
G03*
X8530263Y-32771741I-20000J0D01*
G01*
X8991124Y-30923327D02*
G75*
G03*
X8991124Y-30923327I-20000J0D01*
G01*
X9451985Y-29074914D02*
G75*
G03*
X9451985Y-29074914I-20000J0D01*
G01*
X9629155Y-35254459D02*
G75*
G03*
X9629155Y-35254459I-20000J0D01*
G01*
X9912846Y-27226501D02*
G75*
G03*
X9912846Y-27226501I-20000J0D01*
G01*
X10321068Y-33463654D02*
G75*
G03*
X10321068Y-33463654I-20000J0D01*
G01*
X10649006Y-36032857D02*
G75*
G03*
X10649006Y-36032857I-20000J0D01*
G01*
X10781930Y-31615240D02*
G75*
G03*
X10781930Y-31615240I-20000J0D01*
G01*
X11242791Y-29766827D02*
G75*
G03*
X11242791Y-29766827I-20000J0D01*
G01*
X11703652Y-27918414D02*
G75*
G03*
X11703652Y-27918414I-20000J0D01*
G01*
X12111874Y-34155567D02*
G75*
G03*
X12111874Y-34155567I-20000J0D01*
G01*
X12572735Y-32307153D02*
G75*
G03*
X12572735Y-32307153I-20000J0D01*
G01*
X12575219Y-36234411D02*
G75*
G03*
X12575219Y-36234411I-20000J0D01*
G01*
X13033596Y-30458740D02*
G75*
G03*
X13033596Y-30458740I-20000J0D01*
G01*
X13494458Y-28610326D02*
G75*
G03*
X13494458Y-28610326I-20000J0D01*
G01*
X13595006Y-37011857D02*
G75*
G03*
X13595006Y-37011857I-20000J0D01*
G01*
X13960287Y-34616428D02*
G75*
G03*
X13960287Y-34616428I-20000J0D01*
G01*
X16535875Y-29194125D02*
G75*
G03*
X16535875Y-29194125I-20000J0D01*
G01*
X16535875Y-31099125D02*
G75*
G03*
X16535875Y-31099125I-20000J0D01*
G01*
X16535875Y-33004125D02*
G75*
G03*
X16535875Y-33004125I-20000J0D01*
G01*
X16535875Y-34909125D02*
G75*
G03*
X16535875Y-34909125I-20000J0D01*
G01*
X17488375Y-36814125D02*
G75*
G03*
X17488375Y-36814125I-20000J0D01*
G01*
X17952875Y-37322125D02*
G75*
G03*
X17952875Y-37322125I-20000J0D01*
G01*
X18440875Y-29194125D02*
G75*
G03*
X18440875Y-29194125I-20000J0D01*
G01*
X18440875Y-31099125D02*
G75*
G03*
X18440875Y-31099125I-20000J0D01*
G01*
X18440875Y-33004125D02*
G75*
G03*
X18440875Y-33004125I-20000J0D01*
G01*
X18440875Y-34909125D02*
G75*
G03*
X18440875Y-34909125I-20000J0D01*
G01*
X19857875Y-37322125D02*
G75*
G03*
X19857875Y-37322125I-20000J0D01*
G01*
X20345875Y-29194125D02*
G75*
G03*
X20345875Y-29194125I-20000J0D01*
G01*
X20345875Y-31099125D02*
G75*
G03*
X20345875Y-31099125I-20000J0D01*
G01*
X20345875Y-33004125D02*
G75*
G03*
X20345875Y-33004125I-20000J0D01*
G01*
X20345875Y-34909125D02*
G75*
G03*
X20345875Y-34909125I-20000J0D01*
G01*
X20345875Y-36814125D02*
G75*
G03*
X20345875Y-36814125I-20000J0D01*
G01*
X22250875Y-29194125D02*
G75*
G03*
X22250875Y-29194125I-20000J0D01*
G01*
X22250875Y-33004125D02*
G75*
G03*
X22250875Y-33004125I-20000J0D01*
G01*
X22250875Y-36814125D02*
G75*
G03*
X22250875Y-36814125I-20000J0D01*
G01*
X23213375Y-30644625D02*
G75*
G03*
X23213375Y-30644625I-20000J0D01*
G01*
X23213375Y-34454625D02*
G75*
G03*
X23213375Y-34454625I-20000J0D01*
G01*
X24868554Y-34959231D02*
G75*
G03*
X24868554Y-34959231I-20000J0D01*
G01*
X25334383Y-28953130D02*
G75*
G03*
X25334383Y-28953130I-20000J0D01*
G01*
X25795244Y-30801543D02*
G75*
G03*
X25795244Y-30801543I-20000J0D01*
G01*
X26256106Y-32649956D02*
G75*
G03*
X26256106Y-32649956I-20000J0D01*
G01*
X26716967Y-34498370D02*
G75*
G03*
X26716967Y-34498370I-20000J0D01*
G01*
X26946776Y-36404391D02*
G75*
G03*
X26946776Y-36404391I-20000J0D01*
G01*
X27125189Y-28261217D02*
G75*
G03*
X27125189Y-28261217I-20000J0D01*
G01*
X27586050Y-30109630D02*
G75*
G03*
X27586050Y-30109630I-20000J0D01*
G01*
X28046911Y-31958044D02*
G75*
G03*
X28046911Y-31958044I-20000J0D01*
G01*
X28507773Y-33806457D02*
G75*
G03*
X28507773Y-33806457I-20000J0D01*
G01*
X28915995Y-27569304D02*
G75*
G03*
X28915995Y-27569304I-20000J0D01*
G01*
X29376856Y-29417717D02*
G75*
G03*
X29376856Y-29417717I-20000J0D01*
G01*
X29837717Y-31266131D02*
G75*
G03*
X29837717Y-31266131I-20000J0D01*
G01*
X30298578Y-33114544D02*
G75*
G03*
X30298578Y-33114544I-20000J0D01*
G01*
X30585995Y-35251617D02*
G75*
G03*
X30585995Y-35251617I-20000J0D01*
G01*
X30822016Y-27339494D02*
G75*
G03*
X30822016Y-27339494I-20000J0D01*
G01*
X31282877Y-29187908D02*
G75*
G03*
X31282877Y-29187908I-20000J0D01*
G01*
X31743738Y-31036321D02*
G75*
G03*
X31743738Y-31036321I-20000J0D01*
G01*
X32204599Y-32884734D02*
G75*
G03*
X32204599Y-32884734I-20000J0D01*
G01*
X32966500Y-26892250D02*
G75*
G03*
X32966500Y-26892250I-20000J0D01*
G01*
X33442750Y-28797250D02*
G75*
G03*
X33442750Y-28797250I-20000J0D01*
G01*
X33919000Y-30702250D02*
G75*
G03*
X33919000Y-30702250I-20000J0D01*
G01*
X34157125Y-34512250D02*
G75*
G03*
X34157125Y-34512250I-20000J0D01*
G01*
X34395250Y-32607250D02*
G75*
G03*
X34395250Y-32607250I-20000J0D01*
G01*
X34871500Y-26892250D02*
G75*
G03*
X34871500Y-26892250I-20000J0D01*
G01*
X35347750Y-28797250D02*
G75*
G03*
X35347750Y-28797250I-20000J0D01*
G01*
X35824000Y-30702250D02*
G75*
G03*
X35824000Y-30702250I-20000J0D01*
G01*
X36538375Y-34512250D02*
G75*
G03*
X36538375Y-34512250I-20000J0D01*
G01*
X36776500Y-26892250D02*
G75*
G03*
X36776500Y-26892250I-20000J0D01*
G01*
X37252750Y-28797250D02*
G75*
G03*
X37252750Y-28797250I-20000J0D01*
G01*
X37490875Y-32607250D02*
G75*
G03*
X37490875Y-32607250I-20000J0D01*
G01*
X37717250Y-33115250D02*
G75*
G03*
X37717250Y-33115250I-20000J0D01*
G01*
X38443375Y-32607250D02*
G75*
G03*
X38443375Y-32607250I-20000J0D01*
G01*
X38919625Y-30702250D02*
G75*
G03*
X38919625Y-30702250I-20000J0D01*
G01*
X39078375Y-34909125D02*
G75*
G03*
X39078375Y-34909125I-20000J0D01*
G01*
X39146000Y-31210250D02*
G75*
G03*
X39146000Y-31210250I-20000J0D01*
G01*
X39634000Y-26892250D02*
G75*
G03*
X39634000Y-26892250I-20000J0D01*
G01*
X39634000Y-28797250D02*
G75*
G03*
X39634000Y-28797250I-20000J0D01*
G01*
X40098500Y-27400250D02*
G75*
G03*
X40098500Y-27400250I-20000J0D01*
G01*
X40983375Y-33004125D02*
G75*
G03*
X40983375Y-33004125I-20000J0D01*
G01*
X40983375Y-34909125D02*
G75*
G03*
X40983375Y-34909125I-20000J0D01*
G01*
X42003500Y-27400250D02*
G75*
G03*
X42003500Y-27400250I-20000J0D01*
G01*
X42888375Y-26892250D02*
G75*
G03*
X42888375Y-26892250I-20000J0D01*
G01*
X42888375Y-28797250D02*
G75*
G03*
X42888375Y-28797250I-20000J0D01*
G01*
X42888375Y-30702250D02*
G75*
G03*
X42888375Y-30702250I-20000J0D01*
G01*
X42888375Y-34909125D02*
G75*
G03*
X42888375Y-34909125I-20000J0D01*
G01*
D12*
X-1295400Y-34633700D02*
X-1295400Y-34733700D01*
X-1345400Y-34683700D02*
X-1245400Y-34683700D01*
X-1041400Y-34633700D02*
X-1041400Y-34733700D01*
X-1091400Y-34683700D02*
X-991400Y-34683700D01*
X-787400Y-34633700D02*
X-787400Y-34733700D01*
X-837400Y-34683700D02*
X-737400Y-34683700D01*
X-533400Y-34633700D02*
X-533400Y-34733700D01*
X-583400Y-34683700D02*
X-483400Y-34683700D01*
X-279400Y-34633700D02*
X-279400Y-34733700D01*
X-329400Y-34683700D02*
X-229400Y-34683700D01*
X-25400Y-34633700D02*
X-25400Y-34733700D01*
X-75400Y-34683700D02*
X24600Y-34683700D01*
X228600Y-34633700D02*
X228600Y-34733700D01*
X178600Y-34683700D02*
X278600Y-34683700D01*
X482600Y-34633700D02*
X482600Y-34733700D01*
X432600Y-34683700D02*
X532600Y-34683700D01*
D13*
X-1487937Y-26419063D02*
X-1487937Y-26346937D01*
X-1560063Y-26346937D01*
X-1560063Y-26419063D01*
X-1487937Y-26419063D01*
X-1487937Y-26673063D02*
X-1487937Y-26600937D01*
X-1560063Y-26600937D01*
X-1560063Y-26673063D01*
X-1487937Y-26673063D01*
X-1487937Y-26927063D02*
X-1487937Y-26854937D01*
X-1560063Y-26854937D01*
X-1560063Y-26927063D01*
X-1487937Y-26927063D01*
X-1487937Y-27181063D02*
X-1487937Y-27108937D01*
X-1560063Y-27108937D01*
X-1560063Y-27181063D01*
X-1487937Y-27181063D01*
X-1487937Y-27435063D02*
X-1487937Y-27362937D01*
X-1560063Y-27362937D01*
X-1560063Y-27435063D01*
X-1487937Y-27435063D01*
X-1487937Y-27689063D02*
X-1487937Y-27616937D01*
X-1560063Y-27616937D01*
X-1560063Y-27689063D01*
X-1487937Y-27689063D01*
X-1487937Y-27943063D02*
X-1487937Y-27870937D01*
X-1560063Y-27870937D01*
X-1560063Y-27943063D01*
X-1487937Y-27943063D01*
X-1487937Y-28197063D02*
X-1487937Y-28124937D01*
X-1560063Y-28124937D01*
X-1560063Y-28197063D01*
X-1487937Y-28197063D01*
X-1487937Y-28451063D02*
X-1487937Y-28378937D01*
X-1560063Y-28378937D01*
X-1560063Y-28451063D01*
X-1487937Y-28451063D01*
X-1487937Y-28705063D02*
X-1487937Y-28632937D01*
X-1560063Y-28632937D01*
X-1560063Y-28705063D01*
X-1487937Y-28705063D01*
X-1487937Y-28959063D02*
X-1487937Y-28886937D01*
X-1560063Y-28886937D01*
X-1560063Y-28959063D01*
X-1487937Y-28959063D01*
X-1487937Y-29213063D02*
X-1487937Y-29140937D01*
X-1560063Y-29140937D01*
X-1560063Y-29213063D01*
X-1487937Y-29213063D01*
X-1487937Y-29467063D02*
X-1487937Y-29394937D01*
X-1560063Y-29394937D01*
X-1560063Y-29467063D01*
X-1487937Y-29467063D01*
X-1487937Y-29721063D02*
X-1487937Y-29648937D01*
X-1560063Y-29648937D01*
X-1560063Y-29721063D01*
X-1487937Y-29721063D01*
X-1487937Y-29975063D02*
X-1487937Y-29902937D01*
X-1560063Y-29902937D01*
X-1560063Y-29975063D01*
X-1487937Y-29975063D01*
X-1487937Y-30229063D02*
X-1487937Y-30156937D01*
X-1560063Y-30156937D01*
X-1560063Y-30229063D01*
X-1487937Y-30229063D01*
X-1487937Y-30483063D02*
X-1487937Y-30410937D01*
X-1560063Y-30410937D01*
X-1560063Y-30483063D01*
X-1487937Y-30483063D01*
X-1487937Y-30737063D02*
X-1487937Y-30664937D01*
X-1560063Y-30664937D01*
X-1560063Y-30737063D01*
X-1487937Y-30737063D01*
X-1487937Y-30991063D02*
X-1487937Y-30918937D01*
X-1560063Y-30918937D01*
X-1560063Y-30991063D01*
X-1487937Y-30991063D01*
X-1487937Y-31245063D02*
X-1487937Y-31172937D01*
X-1560063Y-31172937D01*
X-1560063Y-31245063D01*
X-1487937Y-31245063D01*
X290063Y-26419063D02*
X290063Y-26346937D01*
X217937Y-26346937D01*
X217937Y-26419063D01*
X290063Y-26419063D01*
X290063Y-26673063D02*
X290063Y-26600937D01*
X217937Y-26600937D01*
X217937Y-26673063D01*
X290063Y-26673063D01*
X290063Y-26927063D02*
X290063Y-26854937D01*
X217937Y-26854937D01*
X217937Y-26927063D01*
X290063Y-26927063D01*
X290063Y-27181063D02*
X290063Y-27108937D01*
X217937Y-27108937D01*
X217937Y-27181063D01*
X290063Y-27181063D01*
X290063Y-27435063D02*
X290063Y-27362937D01*
X217937Y-27362937D01*
X217937Y-27435063D01*
X290063Y-27435063D01*
X290063Y-27689063D02*
X290063Y-27616937D01*
X217937Y-27616937D01*
X217937Y-27689063D01*
X290063Y-27689063D01*
X290063Y-27943063D02*
X290063Y-27870937D01*
X217937Y-27870937D01*
X217937Y-27943063D01*
X290063Y-27943063D01*
X290063Y-28197063D02*
X290063Y-28124937D01*
X217937Y-28124937D01*
X217937Y-28197063D01*
X290063Y-28197063D01*
X290063Y-28451063D02*
X290063Y-28378937D01*
X217937Y-28378937D01*
X217937Y-28451063D01*
X290063Y-28451063D01*
X290063Y-28705063D02*
X290063Y-28632937D01*
X217937Y-28632937D01*
X217937Y-28705063D01*
X290063Y-28705063D01*
X290063Y-28959063D02*
X290063Y-28886937D01*
X217937Y-28886937D01*
X217937Y-28959063D01*
X290063Y-28959063D01*
X290063Y-29213063D02*
X290063Y-29140937D01*
X217937Y-29140937D01*
X217937Y-29213063D01*
X290063Y-29213063D01*
X290063Y-29467063D02*
X290063Y-29394937D01*
X217937Y-29394937D01*
X217937Y-29467063D01*
X290063Y-29467063D01*
X290063Y-29721063D02*
X290063Y-29648937D01*
X217937Y-29648937D01*
X217937Y-29721063D01*
X290063Y-29721063D01*
X290063Y-29975063D02*
X290063Y-29902937D01*
X217937Y-29902937D01*
X217937Y-29975063D01*
X290063Y-29975063D01*
X290063Y-30229063D02*
X290063Y-30156937D01*
X217937Y-30156937D01*
X217937Y-30229063D01*
X290063Y-30229063D01*
X290063Y-30483063D02*
X290063Y-30410937D01*
X217937Y-30410937D01*
X217937Y-30483063D01*
X290063Y-30483063D01*
X290063Y-30737063D02*
X290063Y-30664937D01*
X217937Y-30664937D01*
X217937Y-30737063D01*
X290063Y-30737063D01*
X290063Y-30991063D02*
X290063Y-30918937D01*
X217937Y-30918937D01*
X217937Y-30991063D01*
X290063Y-30991063D01*
X290063Y-31245063D02*
X290063Y-31172937D01*
X217937Y-31172937D01*
X217937Y-31245063D01*
X290063Y-31245063D01*
D10*
X-1616123Y-38342109D02*
X-1616123Y-38142109D01*
X-1616123Y-38142109D02*
X-1568504Y-38142109D01*
X-1568504Y-38142109D02*
X-1539933Y-38151633D01*
X-1539933Y-38151633D02*
X-1520885Y-38170680D01*
X-1520885Y-38170680D02*
X-1511361Y-38189728D01*
X-1511361Y-38189728D02*
X-1501837Y-38227823D01*
X-1501837Y-38227823D02*
X-1501837Y-38256395D01*
X-1501837Y-38256395D02*
X-1511361Y-38294490D01*
X-1511361Y-38294490D02*
X-1520885Y-38313537D01*
X-1520885Y-38313537D02*
X-1539933Y-38332585D01*
X-1539933Y-38332585D02*
X-1568504Y-38342109D01*
X-1568504Y-38342109D02*
X-1616123Y-38342109D01*
X-1416123Y-38342109D02*
X-1416123Y-38208775D01*
X-1416123Y-38246871D02*
X-1406599Y-38227823D01*
X-1406599Y-38227823D02*
X-1397076Y-38218299D01*
X-1397076Y-38218299D02*
X-1378028Y-38208775D01*
X-1378028Y-38208775D02*
X-1358980Y-38208775D01*
X-1292314Y-38342109D02*
X-1292314Y-38208775D01*
X-1292314Y-38142109D02*
X-1301837Y-38151633D01*
X-1301837Y-38151633D02*
X-1292314Y-38161156D01*
X-1292314Y-38161156D02*
X-1282790Y-38151633D01*
X-1282790Y-38151633D02*
X-1292314Y-38142109D01*
X-1292314Y-38142109D02*
X-1292314Y-38161156D01*
X-1168504Y-38342109D02*
X-1187552Y-38332585D01*
X-1187552Y-38332585D02*
X-1197076Y-38313537D01*
X-1197076Y-38313537D02*
X-1197076Y-38142109D01*
X-1063742Y-38342109D02*
X-1082790Y-38332585D01*
X-1082790Y-38332585D02*
X-1092314Y-38313537D01*
X-1092314Y-38313537D02*
X-1092314Y-38142109D01*
X-835171Y-38342109D02*
X-835171Y-38142109D01*
X-835171Y-38142109D02*
X-768504Y-38284966D01*
X-768504Y-38284966D02*
X-701837Y-38142109D01*
X-701837Y-38142109D02*
X-701837Y-38342109D01*
X-520885Y-38342109D02*
X-520885Y-38237347D01*
X-520885Y-38237347D02*
X-530409Y-38218299D01*
X-530409Y-38218299D02*
X-549456Y-38208775D01*
X-549456Y-38208775D02*
X-587552Y-38208775D01*
X-587552Y-38208775D02*
X-606599Y-38218299D01*
X-520885Y-38332585D02*
X-539933Y-38342109D01*
X-539933Y-38342109D02*
X-587552Y-38342109D01*
X-587552Y-38342109D02*
X-606599Y-38332585D01*
X-606599Y-38332585D02*
X-616123Y-38313537D01*
X-616123Y-38313537D02*
X-616123Y-38294490D01*
X-616123Y-38294490D02*
X-606599Y-38275442D01*
X-606599Y-38275442D02*
X-587552Y-38265918D01*
X-587552Y-38265918D02*
X-539933Y-38265918D01*
X-539933Y-38265918D02*
X-520885Y-38256395D01*
X-425647Y-38208775D02*
X-425647Y-38408775D01*
X-425647Y-38218299D02*
X-406599Y-38208775D01*
X-406599Y-38208775D02*
X-368504Y-38208775D01*
X-368504Y-38208775D02*
X-349456Y-38218299D01*
X-349456Y-38218299D02*
X-339933Y-38227823D01*
X-339933Y-38227823D02*
X-330409Y-38246871D01*
X-330409Y-38246871D02*
X-330409Y-38304014D01*
X-330409Y-38304014D02*
X-339933Y-38323061D01*
X-339933Y-38323061D02*
X-349456Y-38332585D01*
X-349456Y-38332585D02*
X-368504Y-38342109D01*
X-368504Y-38342109D02*
X-406599Y-38342109D01*
X-406599Y-38342109D02*
X-425647Y-38332585D01*
X-244694Y-38323061D02*
X-235171Y-38332585D01*
X-235171Y-38332585D02*
X-244694Y-38342109D01*
X-244694Y-38342109D02*
X-254218Y-38332585D01*
X-254218Y-38332585D02*
X-244694Y-38323061D01*
X-244694Y-38323061D02*
X-244694Y-38342109D01*
X-244694Y-38218299D02*
X-235171Y-38227823D01*
X-235171Y-38227823D02*
X-244694Y-38237347D01*
X-244694Y-38237347D02*
X-254218Y-38227823D01*
X-254218Y-38227823D02*
X-244694Y-38218299D01*
X-244694Y-38218299D02*
X-244694Y-38237347D01*
D11*
X-1916900Y-38650625D02*
X-1876900Y-38690625D01*
X-1876900Y-38650625D02*
X-1916900Y-38690625D01*
D10*
X-1578028Y-38562109D02*
X-1558980Y-38562109D01*
X-1558980Y-38562109D02*
X-1539933Y-38571633D01*
X-1539933Y-38571633D02*
X-1530409Y-38581156D01*
X-1530409Y-38581156D02*
X-1520885Y-38600204D01*
X-1520885Y-38600204D02*
X-1511361Y-38638299D01*
X-1511361Y-38638299D02*
X-1511361Y-38685918D01*
X-1511361Y-38685918D02*
X-1520885Y-38724014D01*
X-1520885Y-38724014D02*
X-1530409Y-38743061D01*
X-1530409Y-38743061D02*
X-1539933Y-38752585D01*
X-1539933Y-38752585D02*
X-1558980Y-38762109D01*
X-1558980Y-38762109D02*
X-1578028Y-38762109D01*
X-1578028Y-38762109D02*
X-1597075Y-38752585D01*
X-1597075Y-38752585D02*
X-1606599Y-38743061D01*
X-1606599Y-38743061D02*
X-1616123Y-38724014D01*
X-1616123Y-38724014D02*
X-1625647Y-38685918D01*
X-1625647Y-38685918D02*
X-1625647Y-38638299D01*
X-1625647Y-38638299D02*
X-1616123Y-38600204D01*
X-1616123Y-38600204D02*
X-1606599Y-38581156D01*
X-1606599Y-38581156D02*
X-1597075Y-38571633D01*
X-1597075Y-38571633D02*
X-1578028Y-38562109D01*
X-1425647Y-38743061D02*
X-1416123Y-38752585D01*
X-1416123Y-38752585D02*
X-1425647Y-38762109D01*
X-1425647Y-38762109D02*
X-1435171Y-38752585D01*
X-1435171Y-38752585D02*
X-1425647Y-38743061D01*
X-1425647Y-38743061D02*
X-1425647Y-38762109D01*
X-1244695Y-38628775D02*
X-1244695Y-38762109D01*
X-1292314Y-38552585D02*
X-1339933Y-38695442D01*
X-1339933Y-38695442D02*
X-1216123Y-38695442D01*
X-1101837Y-38562109D02*
X-1082790Y-38562109D01*
X-1082790Y-38562109D02*
X-1063742Y-38571633D01*
X-1063742Y-38571633D02*
X-1054218Y-38581156D01*
X-1054218Y-38581156D02*
X-1044694Y-38600204D01*
X-1044694Y-38600204D02*
X-1035171Y-38638299D01*
X-1035171Y-38638299D02*
X-1035171Y-38685918D01*
X-1035171Y-38685918D02*
X-1044694Y-38724014D01*
X-1044694Y-38724014D02*
X-1054218Y-38743061D01*
X-1054218Y-38743061D02*
X-1063742Y-38752585D01*
X-1063742Y-38752585D02*
X-1082790Y-38762109D01*
X-1082790Y-38762109D02*
X-1101837Y-38762109D01*
X-1101837Y-38762109D02*
X-1120885Y-38752585D01*
X-1120885Y-38752585D02*
X-1130409Y-38743061D01*
X-1130409Y-38743061D02*
X-1139933Y-38724014D01*
X-1139933Y-38724014D02*
X-1149456Y-38685918D01*
X-1149456Y-38685918D02*
X-1149456Y-38638299D01*
X-1149456Y-38638299D02*
X-1139933Y-38600204D01*
X-1139933Y-38600204D02*
X-1130409Y-38581156D01*
X-1130409Y-38581156D02*
X-1120885Y-38571633D01*
X-1120885Y-38571633D02*
X-1101837Y-38562109D01*
X-911361Y-38562109D02*
X-892313Y-38562109D01*
X-892313Y-38562109D02*
X-873266Y-38571633D01*
X-873266Y-38571633D02*
X-863742Y-38581156D01*
X-863742Y-38581156D02*
X-854218Y-38600204D01*
X-854218Y-38600204D02*
X-844694Y-38638299D01*
X-844694Y-38638299D02*
X-844694Y-38685918D01*
X-844694Y-38685918D02*
X-854218Y-38724014D01*
X-854218Y-38724014D02*
X-863742Y-38743061D01*
X-863742Y-38743061D02*
X-873266Y-38752585D01*
X-873266Y-38752585D02*
X-892313Y-38762109D01*
X-892313Y-38762109D02*
X-911361Y-38762109D01*
X-911361Y-38762109D02*
X-930409Y-38752585D01*
X-930409Y-38752585D02*
X-939933Y-38743061D01*
X-939933Y-38743061D02*
X-949456Y-38724014D01*
X-949456Y-38724014D02*
X-958980Y-38685918D01*
X-958980Y-38685918D02*
X-958980Y-38638299D01*
X-958980Y-38638299D02*
X-949456Y-38600204D01*
X-949456Y-38600204D02*
X-939933Y-38581156D01*
X-939933Y-38581156D02*
X-930409Y-38571633D01*
X-930409Y-38571633D02*
X-911361Y-38562109D01*
X-758980Y-38762109D02*
X-758980Y-38628775D01*
X-758980Y-38647823D02*
X-749456Y-38638299D01*
X-749456Y-38638299D02*
X-730409Y-38628775D01*
X-730409Y-38628775D02*
X-701837Y-38628775D01*
X-701837Y-38628775D02*
X-682790Y-38638299D01*
X-682790Y-38638299D02*
X-673266Y-38657347D01*
X-673266Y-38657347D02*
X-673266Y-38762109D01*
X-673266Y-38657347D02*
X-663742Y-38638299D01*
X-663742Y-38638299D02*
X-644695Y-38628775D01*
X-644695Y-38628775D02*
X-616123Y-38628775D01*
X-616123Y-38628775D02*
X-597075Y-38638299D01*
X-597075Y-38638299D02*
X-587552Y-38657347D01*
X-587552Y-38657347D02*
X-587552Y-38762109D01*
X-492313Y-38762109D02*
X-492313Y-38628775D01*
X-492313Y-38647823D02*
X-482790Y-38638299D01*
X-482790Y-38638299D02*
X-463742Y-38628775D01*
X-463742Y-38628775D02*
X-435171Y-38628775D01*
X-435171Y-38628775D02*
X-416123Y-38638299D01*
X-416123Y-38638299D02*
X-406599Y-38657347D01*
X-406599Y-38657347D02*
X-406599Y-38762109D01*
X-406599Y-38657347D02*
X-397075Y-38638299D01*
X-397075Y-38638299D02*
X-378028Y-38628775D01*
X-378028Y-38628775D02*
X-349456Y-38628775D01*
X-349456Y-38628775D02*
X-330409Y-38638299D01*
X-330409Y-38638299D02*
X-320885Y-38657347D01*
X-320885Y-38657347D02*
X-320885Y-38762109D01*
X69591Y-38552585D02*
X-101837Y-38809728D01*
X326734Y-38562109D02*
X345782Y-38562109D01*
X345782Y-38562109D02*
X364829Y-38571633D01*
X364829Y-38571633D02*
X374353Y-38581156D01*
X374353Y-38581156D02*
X383877Y-38600204D01*
X383877Y-38600204D02*
X393401Y-38638299D01*
X393401Y-38638299D02*
X393401Y-38685918D01*
X393401Y-38685918D02*
X383877Y-38724014D01*
X383877Y-38724014D02*
X374353Y-38743061D01*
X374353Y-38743061D02*
X364829Y-38752585D01*
X364829Y-38752585D02*
X345782Y-38762109D01*
X345782Y-38762109D02*
X326734Y-38762109D01*
X326734Y-38762109D02*
X307687Y-38752585D01*
X307687Y-38752585D02*
X298163Y-38743061D01*
X298163Y-38743061D02*
X288639Y-38724014D01*
X288639Y-38724014D02*
X279115Y-38685918D01*
X279115Y-38685918D02*
X279115Y-38638299D01*
X279115Y-38638299D02*
X288639Y-38600204D01*
X288639Y-38600204D02*
X298163Y-38581156D01*
X298163Y-38581156D02*
X307687Y-38571633D01*
X307687Y-38571633D02*
X326734Y-38562109D01*
X479115Y-38743061D02*
X488639Y-38752585D01*
X488639Y-38752585D02*
X479115Y-38762109D01*
X479115Y-38762109D02*
X469591Y-38752585D01*
X469591Y-38752585D02*
X479115Y-38743061D01*
X479115Y-38743061D02*
X479115Y-38762109D01*
X612448Y-38562109D02*
X631496Y-38562109D01*
X631496Y-38562109D02*
X650544Y-38571633D01*
X650544Y-38571633D02*
X660068Y-38581156D01*
X660068Y-38581156D02*
X669591Y-38600204D01*
X669591Y-38600204D02*
X679115Y-38638299D01*
X679115Y-38638299D02*
X679115Y-38685918D01*
X679115Y-38685918D02*
X669591Y-38724014D01*
X669591Y-38724014D02*
X660068Y-38743061D01*
X660068Y-38743061D02*
X650544Y-38752585D01*
X650544Y-38752585D02*
X631496Y-38762109D01*
X631496Y-38762109D02*
X612448Y-38762109D01*
X612448Y-38762109D02*
X593401Y-38752585D01*
X593401Y-38752585D02*
X583877Y-38743061D01*
X583877Y-38743061D02*
X574353Y-38724014D01*
X574353Y-38724014D02*
X564829Y-38685918D01*
X564829Y-38685918D02*
X564829Y-38638299D01*
X564829Y-38638299D02*
X574353Y-38600204D01*
X574353Y-38600204D02*
X583877Y-38581156D01*
X583877Y-38581156D02*
X593401Y-38571633D01*
X593401Y-38571633D02*
X612448Y-38562109D01*
X869591Y-38762109D02*
X755306Y-38762109D01*
X812448Y-38762109D02*
X812448Y-38562109D01*
X812448Y-38562109D02*
X793401Y-38590680D01*
X793401Y-38590680D02*
X774353Y-38609728D01*
X774353Y-38609728D02*
X755306Y-38619252D01*
X1050544Y-38562109D02*
X955306Y-38562109D01*
X955306Y-38562109D02*
X945782Y-38657347D01*
X945782Y-38657347D02*
X955306Y-38647823D01*
X955306Y-38647823D02*
X974353Y-38638299D01*
X974353Y-38638299D02*
X1021972Y-38638299D01*
X1021972Y-38638299D02*
X1041020Y-38647823D01*
X1041020Y-38647823D02*
X1050544Y-38657347D01*
X1050544Y-38657347D02*
X1060068Y-38676395D01*
X1060068Y-38676395D02*
X1060068Y-38724014D01*
X1060068Y-38724014D02*
X1050544Y-38743061D01*
X1050544Y-38743061D02*
X1041020Y-38752585D01*
X1041020Y-38752585D02*
X1021972Y-38762109D01*
X1021972Y-38762109D02*
X974353Y-38762109D01*
X974353Y-38762109D02*
X955306Y-38752585D01*
X955306Y-38752585D02*
X945782Y-38743061D01*
X1126734Y-38562109D02*
X1260068Y-38562109D01*
X1260068Y-38562109D02*
X1174353Y-38762109D01*
X1326734Y-38562109D02*
X1326734Y-38600204D01*
X1402925Y-38562109D02*
X1402925Y-38600204D01*
X1698163Y-38838299D02*
X1688639Y-38828775D01*
X1688639Y-38828775D02*
X1669591Y-38800204D01*
X1669591Y-38800204D02*
X1660068Y-38781156D01*
X1660068Y-38781156D02*
X1650544Y-38752585D01*
X1650544Y-38752585D02*
X1641020Y-38704966D01*
X1641020Y-38704966D02*
X1641020Y-38666871D01*
X1641020Y-38666871D02*
X1650544Y-38619252D01*
X1650544Y-38619252D02*
X1660068Y-38590680D01*
X1660068Y-38590680D02*
X1669591Y-38571633D01*
X1669591Y-38571633D02*
X1688639Y-38543061D01*
X1688639Y-38543061D02*
X1698163Y-38533537D01*
X1860068Y-38628775D02*
X1860068Y-38762109D01*
X1812448Y-38552585D02*
X1764829Y-38695442D01*
X1764829Y-38695442D02*
X1888639Y-38695442D01*
X2060068Y-38562109D02*
X1964829Y-38562109D01*
X1964829Y-38562109D02*
X1955306Y-38657347D01*
X1955306Y-38657347D02*
X1964829Y-38647823D01*
X1964829Y-38647823D02*
X1983877Y-38638299D01*
X1983877Y-38638299D02*
X2031496Y-38638299D01*
X2031496Y-38638299D02*
X2050544Y-38647823D01*
X2050544Y-38647823D02*
X2060068Y-38657347D01*
X2060068Y-38657347D02*
X2069591Y-38676395D01*
X2069591Y-38676395D02*
X2069591Y-38724014D01*
X2069591Y-38724014D02*
X2060068Y-38743061D01*
X2060068Y-38743061D02*
X2050544Y-38752585D01*
X2050544Y-38752585D02*
X2031496Y-38762109D01*
X2031496Y-38762109D02*
X1983877Y-38762109D01*
X1983877Y-38762109D02*
X1964829Y-38752585D01*
X1964829Y-38752585D02*
X1955306Y-38743061D01*
X2307687Y-38762109D02*
X2307687Y-38562109D01*
X2393401Y-38762109D02*
X2393401Y-38657347D01*
X2393401Y-38657347D02*
X2383877Y-38638299D01*
X2383877Y-38638299D02*
X2364830Y-38628775D01*
X2364830Y-38628775D02*
X2336258Y-38628775D01*
X2336258Y-38628775D02*
X2317211Y-38638299D01*
X2317211Y-38638299D02*
X2307687Y-38647823D01*
X2517211Y-38762109D02*
X2498163Y-38752585D01*
X2498163Y-38752585D02*
X2488639Y-38743061D01*
X2488639Y-38743061D02*
X2479115Y-38724014D01*
X2479115Y-38724014D02*
X2479115Y-38666871D01*
X2479115Y-38666871D02*
X2488639Y-38647823D01*
X2488639Y-38647823D02*
X2498163Y-38638299D01*
X2498163Y-38638299D02*
X2517211Y-38628775D01*
X2517211Y-38628775D02*
X2545782Y-38628775D01*
X2545782Y-38628775D02*
X2564830Y-38638299D01*
X2564830Y-38638299D02*
X2574353Y-38647823D01*
X2574353Y-38647823D02*
X2583877Y-38666871D01*
X2583877Y-38666871D02*
X2583877Y-38724014D01*
X2583877Y-38724014D02*
X2574353Y-38743061D01*
X2574353Y-38743061D02*
X2564830Y-38752585D01*
X2564830Y-38752585D02*
X2545782Y-38762109D01*
X2545782Y-38762109D02*
X2517211Y-38762109D01*
X2698163Y-38762109D02*
X2679115Y-38752585D01*
X2679115Y-38752585D02*
X2669592Y-38733537D01*
X2669592Y-38733537D02*
X2669592Y-38562109D01*
X2850544Y-38752585D02*
X2831496Y-38762109D01*
X2831496Y-38762109D02*
X2793401Y-38762109D01*
X2793401Y-38762109D02*
X2774353Y-38752585D01*
X2774353Y-38752585D02*
X2764830Y-38733537D01*
X2764830Y-38733537D02*
X2764830Y-38657347D01*
X2764830Y-38657347D02*
X2774353Y-38638299D01*
X2774353Y-38638299D02*
X2793401Y-38628775D01*
X2793401Y-38628775D02*
X2831496Y-38628775D01*
X2831496Y-38628775D02*
X2850544Y-38638299D01*
X2850544Y-38638299D02*
X2860068Y-38657347D01*
X2860068Y-38657347D02*
X2860068Y-38676395D01*
X2860068Y-38676395D02*
X2764830Y-38695442D01*
X2936258Y-38752585D02*
X2955306Y-38762109D01*
X2955306Y-38762109D02*
X2993401Y-38762109D01*
X2993401Y-38762109D02*
X3012449Y-38752585D01*
X3012449Y-38752585D02*
X3021972Y-38733537D01*
X3021972Y-38733537D02*
X3021972Y-38724014D01*
X3021972Y-38724014D02*
X3012449Y-38704966D01*
X3012449Y-38704966D02*
X2993401Y-38695442D01*
X2993401Y-38695442D02*
X2964830Y-38695442D01*
X2964830Y-38695442D02*
X2945782Y-38685918D01*
X2945782Y-38685918D02*
X2936258Y-38666871D01*
X2936258Y-38666871D02*
X2936258Y-38657347D01*
X2936258Y-38657347D02*
X2945782Y-38638299D01*
X2945782Y-38638299D02*
X2964830Y-38628775D01*
X2964830Y-38628775D02*
X2993401Y-38628775D01*
X2993401Y-38628775D02*
X3012449Y-38638299D01*
X3088639Y-38838299D02*
X3098163Y-38828775D01*
X3098163Y-38828775D02*
X3117211Y-38800204D01*
X3117211Y-38800204D02*
X3126734Y-38781156D01*
X3126734Y-38781156D02*
X3136258Y-38752585D01*
X3136258Y-38752585D02*
X3145782Y-38704966D01*
X3145782Y-38704966D02*
X3145782Y-38666871D01*
X3145782Y-38666871D02*
X3136258Y-38619252D01*
X3136258Y-38619252D02*
X3126734Y-38590680D01*
X3126734Y-38590680D02*
X3117211Y-38571633D01*
X3117211Y-38571633D02*
X3098163Y-38543061D01*
X3098163Y-38543061D02*
X3088639Y-38533537D01*
D11*
X-1876900Y-38934625D02*
G75*
G03*
X-1876900Y-38934625I-20000J0D01*
G01*
D10*
X-1578028Y-38826109D02*
X-1558980Y-38826109D01*
X-1558980Y-38826109D02*
X-1539933Y-38835633D01*
X-1539933Y-38835633D02*
X-1530409Y-38845156D01*
X-1530409Y-38845156D02*
X-1520885Y-38864204D01*
X-1520885Y-38864204D02*
X-1511361Y-38902299D01*
X-1511361Y-38902299D02*
X-1511361Y-38949918D01*
X-1511361Y-38949918D02*
X-1520885Y-38988014D01*
X-1520885Y-38988014D02*
X-1530409Y-39007061D01*
X-1530409Y-39007061D02*
X-1539933Y-39016585D01*
X-1539933Y-39016585D02*
X-1558980Y-39026109D01*
X-1558980Y-39026109D02*
X-1578028Y-39026109D01*
X-1578028Y-39026109D02*
X-1597075Y-39016585D01*
X-1597075Y-39016585D02*
X-1606599Y-39007061D01*
X-1606599Y-39007061D02*
X-1616123Y-38988014D01*
X-1616123Y-38988014D02*
X-1625647Y-38949918D01*
X-1625647Y-38949918D02*
X-1625647Y-38902299D01*
X-1625647Y-38902299D02*
X-1616123Y-38864204D01*
X-1616123Y-38864204D02*
X-1606599Y-38845156D01*
X-1606599Y-38845156D02*
X-1597075Y-38835633D01*
X-1597075Y-38835633D02*
X-1578028Y-38826109D01*
X-1425647Y-39007061D02*
X-1416123Y-39016585D01*
X-1416123Y-39016585D02*
X-1425647Y-39026109D01*
X-1425647Y-39026109D02*
X-1435171Y-39016585D01*
X-1435171Y-39016585D02*
X-1425647Y-39007061D01*
X-1425647Y-39007061D02*
X-1425647Y-39026109D01*
X-1244695Y-38892775D02*
X-1244695Y-39026109D01*
X-1292314Y-38816585D02*
X-1339933Y-38959442D01*
X-1339933Y-38959442D02*
X-1216123Y-38959442D01*
X-1101837Y-38826109D02*
X-1082790Y-38826109D01*
X-1082790Y-38826109D02*
X-1063742Y-38835633D01*
X-1063742Y-38835633D02*
X-1054218Y-38845156D01*
X-1054218Y-38845156D02*
X-1044694Y-38864204D01*
X-1044694Y-38864204D02*
X-1035171Y-38902299D01*
X-1035171Y-38902299D02*
X-1035171Y-38949918D01*
X-1035171Y-38949918D02*
X-1044694Y-38988014D01*
X-1044694Y-38988014D02*
X-1054218Y-39007061D01*
X-1054218Y-39007061D02*
X-1063742Y-39016585D01*
X-1063742Y-39016585D02*
X-1082790Y-39026109D01*
X-1082790Y-39026109D02*
X-1101837Y-39026109D01*
X-1101837Y-39026109D02*
X-1120885Y-39016585D01*
X-1120885Y-39016585D02*
X-1130409Y-39007061D01*
X-1130409Y-39007061D02*
X-1139933Y-38988014D01*
X-1139933Y-38988014D02*
X-1149456Y-38949918D01*
X-1149456Y-38949918D02*
X-1149456Y-38902299D01*
X-1149456Y-38902299D02*
X-1139933Y-38864204D01*
X-1139933Y-38864204D02*
X-1130409Y-38845156D01*
X-1130409Y-38845156D02*
X-1120885Y-38835633D01*
X-1120885Y-38835633D02*
X-1101837Y-38826109D01*
X-911361Y-38826109D02*
X-892313Y-38826109D01*
X-892313Y-38826109D02*
X-873266Y-38835633D01*
X-873266Y-38835633D02*
X-863742Y-38845156D01*
X-863742Y-38845156D02*
X-854218Y-38864204D01*
X-854218Y-38864204D02*
X-844694Y-38902299D01*
X-844694Y-38902299D02*
X-844694Y-38949918D01*
X-844694Y-38949918D02*
X-854218Y-38988014D01*
X-854218Y-38988014D02*
X-863742Y-39007061D01*
X-863742Y-39007061D02*
X-873266Y-39016585D01*
X-873266Y-39016585D02*
X-892313Y-39026109D01*
X-892313Y-39026109D02*
X-911361Y-39026109D01*
X-911361Y-39026109D02*
X-930409Y-39016585D01*
X-930409Y-39016585D02*
X-939933Y-39007061D01*
X-939933Y-39007061D02*
X-949456Y-38988014D01*
X-949456Y-38988014D02*
X-958980Y-38949918D01*
X-958980Y-38949918D02*
X-958980Y-38902299D01*
X-958980Y-38902299D02*
X-949456Y-38864204D01*
X-949456Y-38864204D02*
X-939933Y-38845156D01*
X-939933Y-38845156D02*
X-930409Y-38835633D01*
X-930409Y-38835633D02*
X-911361Y-38826109D01*
X-758980Y-39026109D02*
X-758980Y-38892775D01*
X-758980Y-38911823D02*
X-749456Y-38902299D01*
X-749456Y-38902299D02*
X-730409Y-38892775D01*
X-730409Y-38892775D02*
X-701837Y-38892775D01*
X-701837Y-38892775D02*
X-682790Y-38902299D01*
X-682790Y-38902299D02*
X-673266Y-38921347D01*
X-673266Y-38921347D02*
X-673266Y-39026109D01*
X-673266Y-38921347D02*
X-663742Y-38902299D01*
X-663742Y-38902299D02*
X-644695Y-38892775D01*
X-644695Y-38892775D02*
X-616123Y-38892775D01*
X-616123Y-38892775D02*
X-597075Y-38902299D01*
X-597075Y-38902299D02*
X-587552Y-38921347D01*
X-587552Y-38921347D02*
X-587552Y-39026109D01*
X-492313Y-39026109D02*
X-492313Y-38892775D01*
X-492313Y-38911823D02*
X-482790Y-38902299D01*
X-482790Y-38902299D02*
X-463742Y-38892775D01*
X-463742Y-38892775D02*
X-435171Y-38892775D01*
X-435171Y-38892775D02*
X-416123Y-38902299D01*
X-416123Y-38902299D02*
X-406599Y-38921347D01*
X-406599Y-38921347D02*
X-406599Y-39026109D01*
X-406599Y-38921347D02*
X-397075Y-38902299D01*
X-397075Y-38902299D02*
X-378028Y-38892775D01*
X-378028Y-38892775D02*
X-349456Y-38892775D01*
X-349456Y-38892775D02*
X-330409Y-38902299D01*
X-330409Y-38902299D02*
X-320885Y-38921347D01*
X-320885Y-38921347D02*
X-320885Y-39026109D01*
X69591Y-38816585D02*
X-101837Y-39073728D01*
X326734Y-38826109D02*
X345782Y-38826109D01*
X345782Y-38826109D02*
X364829Y-38835633D01*
X364829Y-38835633D02*
X374353Y-38845156D01*
X374353Y-38845156D02*
X383877Y-38864204D01*
X383877Y-38864204D02*
X393401Y-38902299D01*
X393401Y-38902299D02*
X393401Y-38949918D01*
X393401Y-38949918D02*
X383877Y-38988014D01*
X383877Y-38988014D02*
X374353Y-39007061D01*
X374353Y-39007061D02*
X364829Y-39016585D01*
X364829Y-39016585D02*
X345782Y-39026109D01*
X345782Y-39026109D02*
X326734Y-39026109D01*
X326734Y-39026109D02*
X307687Y-39016585D01*
X307687Y-39016585D02*
X298163Y-39007061D01*
X298163Y-39007061D02*
X288639Y-38988014D01*
X288639Y-38988014D02*
X279115Y-38949918D01*
X279115Y-38949918D02*
X279115Y-38902299D01*
X279115Y-38902299D02*
X288639Y-38864204D01*
X288639Y-38864204D02*
X298163Y-38845156D01*
X298163Y-38845156D02*
X307687Y-38835633D01*
X307687Y-38835633D02*
X326734Y-38826109D01*
X479115Y-39007061D02*
X488639Y-39016585D01*
X488639Y-39016585D02*
X479115Y-39026109D01*
X479115Y-39026109D02*
X469591Y-39016585D01*
X469591Y-39016585D02*
X479115Y-39007061D01*
X479115Y-39007061D02*
X479115Y-39026109D01*
X612448Y-38826109D02*
X631496Y-38826109D01*
X631496Y-38826109D02*
X650544Y-38835633D01*
X650544Y-38835633D02*
X660068Y-38845156D01*
X660068Y-38845156D02*
X669591Y-38864204D01*
X669591Y-38864204D02*
X679115Y-38902299D01*
X679115Y-38902299D02*
X679115Y-38949918D01*
X679115Y-38949918D02*
X669591Y-38988014D01*
X669591Y-38988014D02*
X660068Y-39007061D01*
X660068Y-39007061D02*
X650544Y-39016585D01*
X650544Y-39016585D02*
X631496Y-39026109D01*
X631496Y-39026109D02*
X612448Y-39026109D01*
X612448Y-39026109D02*
X593401Y-39016585D01*
X593401Y-39016585D02*
X583877Y-39007061D01*
X583877Y-39007061D02*
X574353Y-38988014D01*
X574353Y-38988014D02*
X564829Y-38949918D01*
X564829Y-38949918D02*
X564829Y-38902299D01*
X564829Y-38902299D02*
X574353Y-38864204D01*
X574353Y-38864204D02*
X583877Y-38845156D01*
X583877Y-38845156D02*
X593401Y-38835633D01*
X593401Y-38835633D02*
X612448Y-38826109D01*
X869591Y-39026109D02*
X755306Y-39026109D01*
X812448Y-39026109D02*
X812448Y-38826109D01*
X812448Y-38826109D02*
X793401Y-38854680D01*
X793401Y-38854680D02*
X774353Y-38873728D01*
X774353Y-38873728D02*
X755306Y-38883252D01*
X1050544Y-38826109D02*
X955306Y-38826109D01*
X955306Y-38826109D02*
X945782Y-38921347D01*
X945782Y-38921347D02*
X955306Y-38911823D01*
X955306Y-38911823D02*
X974353Y-38902299D01*
X974353Y-38902299D02*
X1021972Y-38902299D01*
X1021972Y-38902299D02*
X1041020Y-38911823D01*
X1041020Y-38911823D02*
X1050544Y-38921347D01*
X1050544Y-38921347D02*
X1060068Y-38940395D01*
X1060068Y-38940395D02*
X1060068Y-38988014D01*
X1060068Y-38988014D02*
X1050544Y-39007061D01*
X1050544Y-39007061D02*
X1041020Y-39016585D01*
X1041020Y-39016585D02*
X1021972Y-39026109D01*
X1021972Y-39026109D02*
X974353Y-39026109D01*
X974353Y-39026109D02*
X955306Y-39016585D01*
X955306Y-39016585D02*
X945782Y-39007061D01*
X1126734Y-38826109D02*
X1260068Y-38826109D01*
X1260068Y-38826109D02*
X1174353Y-39026109D01*
X1326734Y-38826109D02*
X1326734Y-38864204D01*
X1402925Y-38826109D02*
X1402925Y-38864204D01*
X1698163Y-39102299D02*
X1688639Y-39092775D01*
X1688639Y-39092775D02*
X1669591Y-39064204D01*
X1669591Y-39064204D02*
X1660068Y-39045156D01*
X1660068Y-39045156D02*
X1650544Y-39016585D01*
X1650544Y-39016585D02*
X1641020Y-38968966D01*
X1641020Y-38968966D02*
X1641020Y-38930871D01*
X1641020Y-38930871D02*
X1650544Y-38883252D01*
X1650544Y-38883252D02*
X1660068Y-38854680D01*
X1660068Y-38854680D02*
X1669591Y-38835633D01*
X1669591Y-38835633D02*
X1688639Y-38807061D01*
X1688639Y-38807061D02*
X1698163Y-38797537D01*
X1879115Y-39026109D02*
X1764829Y-39026109D01*
X1821972Y-39026109D02*
X1821972Y-38826109D01*
X1821972Y-38826109D02*
X1802925Y-38854680D01*
X1802925Y-38854680D02*
X1783877Y-38873728D01*
X1783877Y-38873728D02*
X1764829Y-38883252D01*
X2002925Y-38826109D02*
X2021972Y-38826109D01*
X2021972Y-38826109D02*
X2041020Y-38835633D01*
X2041020Y-38835633D02*
X2050544Y-38845156D01*
X2050544Y-38845156D02*
X2060068Y-38864204D01*
X2060068Y-38864204D02*
X2069591Y-38902299D01*
X2069591Y-38902299D02*
X2069591Y-38949918D01*
X2069591Y-38949918D02*
X2060068Y-38988014D01*
X2060068Y-38988014D02*
X2050544Y-39007061D01*
X2050544Y-39007061D02*
X2041020Y-39016585D01*
X2041020Y-39016585D02*
X2021972Y-39026109D01*
X2021972Y-39026109D02*
X2002925Y-39026109D01*
X2002925Y-39026109D02*
X1983877Y-39016585D01*
X1983877Y-39016585D02*
X1974353Y-39007061D01*
X1974353Y-39007061D02*
X1964829Y-38988014D01*
X1964829Y-38988014D02*
X1955306Y-38949918D01*
X1955306Y-38949918D02*
X1955306Y-38902299D01*
X1955306Y-38902299D02*
X1964829Y-38864204D01*
X1964829Y-38864204D02*
X1974353Y-38845156D01*
X1974353Y-38845156D02*
X1983877Y-38835633D01*
X1983877Y-38835633D02*
X2002925Y-38826109D01*
X2136258Y-38826109D02*
X2260068Y-38826109D01*
X2260068Y-38826109D02*
X2193401Y-38902299D01*
X2193401Y-38902299D02*
X2221972Y-38902299D01*
X2221972Y-38902299D02*
X2241020Y-38911823D01*
X2241020Y-38911823D02*
X2250544Y-38921347D01*
X2250544Y-38921347D02*
X2260068Y-38940395D01*
X2260068Y-38940395D02*
X2260068Y-38988014D01*
X2260068Y-38988014D02*
X2250544Y-39007061D01*
X2250544Y-39007061D02*
X2241020Y-39016585D01*
X2241020Y-39016585D02*
X2221972Y-39026109D01*
X2221972Y-39026109D02*
X2164830Y-39026109D01*
X2164830Y-39026109D02*
X2145782Y-39016585D01*
X2145782Y-39016585D02*
X2136258Y-39007061D01*
X2498163Y-39026109D02*
X2498163Y-38826109D01*
X2583877Y-39026109D02*
X2583877Y-38921347D01*
X2583877Y-38921347D02*
X2574353Y-38902299D01*
X2574353Y-38902299D02*
X2555306Y-38892775D01*
X2555306Y-38892775D02*
X2526734Y-38892775D01*
X2526734Y-38892775D02*
X2507687Y-38902299D01*
X2507687Y-38902299D02*
X2498163Y-38911823D01*
X2707687Y-39026109D02*
X2688639Y-39016585D01*
X2688639Y-39016585D02*
X2679115Y-39007061D01*
X2679115Y-39007061D02*
X2669592Y-38988014D01*
X2669592Y-38988014D02*
X2669592Y-38930871D01*
X2669592Y-38930871D02*
X2679115Y-38911823D01*
X2679115Y-38911823D02*
X2688639Y-38902299D01*
X2688639Y-38902299D02*
X2707687Y-38892775D01*
X2707687Y-38892775D02*
X2736258Y-38892775D01*
X2736258Y-38892775D02*
X2755306Y-38902299D01*
X2755306Y-38902299D02*
X2764830Y-38911823D01*
X2764830Y-38911823D02*
X2774353Y-38930871D01*
X2774353Y-38930871D02*
X2774353Y-38988014D01*
X2774353Y-38988014D02*
X2764830Y-39007061D01*
X2764830Y-39007061D02*
X2755306Y-39016585D01*
X2755306Y-39016585D02*
X2736258Y-39026109D01*
X2736258Y-39026109D02*
X2707687Y-39026109D01*
X2888639Y-39026109D02*
X2869591Y-39016585D01*
X2869591Y-39016585D02*
X2860068Y-38997537D01*
X2860068Y-38997537D02*
X2860068Y-38826109D01*
X3041020Y-39016585D02*
X3021972Y-39026109D01*
X3021972Y-39026109D02*
X2983877Y-39026109D01*
X2983877Y-39026109D02*
X2964830Y-39016585D01*
X2964830Y-39016585D02*
X2955306Y-38997537D01*
X2955306Y-38997537D02*
X2955306Y-38921347D01*
X2955306Y-38921347D02*
X2964830Y-38902299D01*
X2964830Y-38902299D02*
X2983877Y-38892775D01*
X2983877Y-38892775D02*
X3021972Y-38892775D01*
X3021972Y-38892775D02*
X3041020Y-38902299D01*
X3041020Y-38902299D02*
X3050544Y-38921347D01*
X3050544Y-38921347D02*
X3050544Y-38940395D01*
X3050544Y-38940395D02*
X2955306Y-38959442D01*
X3126734Y-39016585D02*
X3145782Y-39026109D01*
X3145782Y-39026109D02*
X3183877Y-39026109D01*
X3183877Y-39026109D02*
X3202925Y-39016585D01*
X3202925Y-39016585D02*
X3212449Y-38997537D01*
X3212449Y-38997537D02*
X3212449Y-38988014D01*
X3212449Y-38988014D02*
X3202925Y-38968966D01*
X3202925Y-38968966D02*
X3183877Y-38959442D01*
X3183877Y-38959442D02*
X3155306Y-38959442D01*
X3155306Y-38959442D02*
X3136258Y-38949918D01*
X3136258Y-38949918D02*
X3126734Y-38930871D01*
X3126734Y-38930871D02*
X3126734Y-38921347D01*
X3126734Y-38921347D02*
X3136258Y-38902299D01*
X3136258Y-38902299D02*
X3155306Y-38892775D01*
X3155306Y-38892775D02*
X3183877Y-38892775D01*
X3183877Y-38892775D02*
X3202925Y-38902299D01*
X3279115Y-39102299D02*
X3288639Y-39092775D01*
X3288639Y-39092775D02*
X3307687Y-39064204D01*
X3307687Y-39064204D02*
X3317211Y-39045156D01*
X3317211Y-39045156D02*
X3326734Y-39016585D01*
X3326734Y-39016585D02*
X3336258Y-38968966D01*
X3336258Y-38968966D02*
X3336258Y-38930871D01*
X3336258Y-38930871D02*
X3326734Y-38883252D01*
X3326734Y-38883252D02*
X3317211Y-38854680D01*
X3317211Y-38854680D02*
X3307687Y-38835633D01*
X3307687Y-38835633D02*
X3288639Y-38807061D01*
X3288639Y-38807061D02*
X3279115Y-38797537D01*
D12*
X-1926900Y-39148625D02*
X-1926900Y-39248625D01*
X-1976900Y-39198625D02*
X-1876900Y-39198625D01*
D10*
X-1511361Y-39290109D02*
X-1625647Y-39290109D01*
X-1568504Y-39290109D02*
X-1568504Y-39090109D01*
X-1568504Y-39090109D02*
X-1587552Y-39118680D01*
X-1587552Y-39118680D02*
X-1606599Y-39137728D01*
X-1606599Y-39137728D02*
X-1625647Y-39147252D01*
X-1425647Y-39271061D02*
X-1416123Y-39280585D01*
X-1416123Y-39280585D02*
X-1425647Y-39290109D01*
X-1425647Y-39290109D02*
X-1435171Y-39280585D01*
X-1435171Y-39280585D02*
X-1425647Y-39271061D01*
X-1425647Y-39271061D02*
X-1425647Y-39290109D01*
X-1292314Y-39090109D02*
X-1273266Y-39090109D01*
X-1273266Y-39090109D02*
X-1254218Y-39099633D01*
X-1254218Y-39099633D02*
X-1244695Y-39109156D01*
X-1244695Y-39109156D02*
X-1235171Y-39128204D01*
X-1235171Y-39128204D02*
X-1225647Y-39166299D01*
X-1225647Y-39166299D02*
X-1225647Y-39213918D01*
X-1225647Y-39213918D02*
X-1235171Y-39252014D01*
X-1235171Y-39252014D02*
X-1244695Y-39271061D01*
X-1244695Y-39271061D02*
X-1254218Y-39280585D01*
X-1254218Y-39280585D02*
X-1273266Y-39290109D01*
X-1273266Y-39290109D02*
X-1292314Y-39290109D01*
X-1292314Y-39290109D02*
X-1311361Y-39280585D01*
X-1311361Y-39280585D02*
X-1320885Y-39271061D01*
X-1320885Y-39271061D02*
X-1330409Y-39252014D01*
X-1330409Y-39252014D02*
X-1339933Y-39213918D01*
X-1339933Y-39213918D02*
X-1339933Y-39166299D01*
X-1339933Y-39166299D02*
X-1330409Y-39128204D01*
X-1330409Y-39128204D02*
X-1320885Y-39109156D01*
X-1320885Y-39109156D02*
X-1311361Y-39099633D01*
X-1311361Y-39099633D02*
X-1292314Y-39090109D01*
X-1101837Y-39090109D02*
X-1082790Y-39090109D01*
X-1082790Y-39090109D02*
X-1063742Y-39099633D01*
X-1063742Y-39099633D02*
X-1054218Y-39109156D01*
X-1054218Y-39109156D02*
X-1044694Y-39128204D01*
X-1044694Y-39128204D02*
X-1035171Y-39166299D01*
X-1035171Y-39166299D02*
X-1035171Y-39213918D01*
X-1035171Y-39213918D02*
X-1044694Y-39252014D01*
X-1044694Y-39252014D02*
X-1054218Y-39271061D01*
X-1054218Y-39271061D02*
X-1063742Y-39280585D01*
X-1063742Y-39280585D02*
X-1082790Y-39290109D01*
X-1082790Y-39290109D02*
X-1101837Y-39290109D01*
X-1101837Y-39290109D02*
X-1120885Y-39280585D01*
X-1120885Y-39280585D02*
X-1130409Y-39271061D01*
X-1130409Y-39271061D02*
X-1139933Y-39252014D01*
X-1139933Y-39252014D02*
X-1149456Y-39213918D01*
X-1149456Y-39213918D02*
X-1149456Y-39166299D01*
X-1149456Y-39166299D02*
X-1139933Y-39128204D01*
X-1139933Y-39128204D02*
X-1130409Y-39109156D01*
X-1130409Y-39109156D02*
X-1120885Y-39099633D01*
X-1120885Y-39099633D02*
X-1101837Y-39090109D01*
X-911361Y-39090109D02*
X-892313Y-39090109D01*
X-892313Y-39090109D02*
X-873266Y-39099633D01*
X-873266Y-39099633D02*
X-863742Y-39109156D01*
X-863742Y-39109156D02*
X-854218Y-39128204D01*
X-854218Y-39128204D02*
X-844694Y-39166299D01*
X-844694Y-39166299D02*
X-844694Y-39213918D01*
X-844694Y-39213918D02*
X-854218Y-39252014D01*
X-854218Y-39252014D02*
X-863742Y-39271061D01*
X-863742Y-39271061D02*
X-873266Y-39280585D01*
X-873266Y-39280585D02*
X-892313Y-39290109D01*
X-892313Y-39290109D02*
X-911361Y-39290109D01*
X-911361Y-39290109D02*
X-930409Y-39280585D01*
X-930409Y-39280585D02*
X-939933Y-39271061D01*
X-939933Y-39271061D02*
X-949456Y-39252014D01*
X-949456Y-39252014D02*
X-958980Y-39213918D01*
X-958980Y-39213918D02*
X-958980Y-39166299D01*
X-958980Y-39166299D02*
X-949456Y-39128204D01*
X-949456Y-39128204D02*
X-939933Y-39109156D01*
X-939933Y-39109156D02*
X-930409Y-39099633D01*
X-930409Y-39099633D02*
X-911361Y-39090109D01*
X-758980Y-39290109D02*
X-758980Y-39156775D01*
X-758980Y-39175823D02*
X-749456Y-39166299D01*
X-749456Y-39166299D02*
X-730409Y-39156775D01*
X-730409Y-39156775D02*
X-701837Y-39156775D01*
X-701837Y-39156775D02*
X-682790Y-39166299D01*
X-682790Y-39166299D02*
X-673266Y-39185347D01*
X-673266Y-39185347D02*
X-673266Y-39290109D01*
X-673266Y-39185347D02*
X-663742Y-39166299D01*
X-663742Y-39166299D02*
X-644695Y-39156775D01*
X-644695Y-39156775D02*
X-616123Y-39156775D01*
X-616123Y-39156775D02*
X-597075Y-39166299D01*
X-597075Y-39166299D02*
X-587552Y-39185347D01*
X-587552Y-39185347D02*
X-587552Y-39290109D01*
X-492313Y-39290109D02*
X-492313Y-39156775D01*
X-492313Y-39175823D02*
X-482790Y-39166299D01*
X-482790Y-39166299D02*
X-463742Y-39156775D01*
X-463742Y-39156775D02*
X-435171Y-39156775D01*
X-435171Y-39156775D02*
X-416123Y-39166299D01*
X-416123Y-39166299D02*
X-406599Y-39185347D01*
X-406599Y-39185347D02*
X-406599Y-39290109D01*
X-406599Y-39185347D02*
X-397075Y-39166299D01*
X-397075Y-39166299D02*
X-378028Y-39156775D01*
X-378028Y-39156775D02*
X-349456Y-39156775D01*
X-349456Y-39156775D02*
X-330409Y-39166299D01*
X-330409Y-39166299D02*
X-320885Y-39185347D01*
X-320885Y-39185347D02*
X-320885Y-39290109D01*
X69591Y-39080585D02*
X-101837Y-39337728D01*
X326734Y-39090109D02*
X345782Y-39090109D01*
X345782Y-39090109D02*
X364829Y-39099633D01*
X364829Y-39099633D02*
X374353Y-39109156D01*
X374353Y-39109156D02*
X383877Y-39128204D01*
X383877Y-39128204D02*
X393401Y-39166299D01*
X393401Y-39166299D02*
X393401Y-39213918D01*
X393401Y-39213918D02*
X383877Y-39252014D01*
X383877Y-39252014D02*
X374353Y-39271061D01*
X374353Y-39271061D02*
X364829Y-39280585D01*
X364829Y-39280585D02*
X345782Y-39290109D01*
X345782Y-39290109D02*
X326734Y-39290109D01*
X326734Y-39290109D02*
X307687Y-39280585D01*
X307687Y-39280585D02*
X298163Y-39271061D01*
X298163Y-39271061D02*
X288639Y-39252014D01*
X288639Y-39252014D02*
X279115Y-39213918D01*
X279115Y-39213918D02*
X279115Y-39166299D01*
X279115Y-39166299D02*
X288639Y-39128204D01*
X288639Y-39128204D02*
X298163Y-39109156D01*
X298163Y-39109156D02*
X307687Y-39099633D01*
X307687Y-39099633D02*
X326734Y-39090109D01*
X479115Y-39271061D02*
X488639Y-39280585D01*
X488639Y-39280585D02*
X479115Y-39290109D01*
X479115Y-39290109D02*
X469591Y-39280585D01*
X469591Y-39280585D02*
X479115Y-39271061D01*
X479115Y-39271061D02*
X479115Y-39290109D01*
X612448Y-39090109D02*
X631496Y-39090109D01*
X631496Y-39090109D02*
X650544Y-39099633D01*
X650544Y-39099633D02*
X660068Y-39109156D01*
X660068Y-39109156D02*
X669591Y-39128204D01*
X669591Y-39128204D02*
X679115Y-39166299D01*
X679115Y-39166299D02*
X679115Y-39213918D01*
X679115Y-39213918D02*
X669591Y-39252014D01*
X669591Y-39252014D02*
X660068Y-39271061D01*
X660068Y-39271061D02*
X650544Y-39280585D01*
X650544Y-39280585D02*
X631496Y-39290109D01*
X631496Y-39290109D02*
X612448Y-39290109D01*
X612448Y-39290109D02*
X593401Y-39280585D01*
X593401Y-39280585D02*
X583877Y-39271061D01*
X583877Y-39271061D02*
X574353Y-39252014D01*
X574353Y-39252014D02*
X564829Y-39213918D01*
X564829Y-39213918D02*
X564829Y-39166299D01*
X564829Y-39166299D02*
X574353Y-39128204D01*
X574353Y-39128204D02*
X583877Y-39109156D01*
X583877Y-39109156D02*
X593401Y-39099633D01*
X593401Y-39099633D02*
X612448Y-39090109D01*
X745782Y-39090109D02*
X869591Y-39090109D01*
X869591Y-39090109D02*
X802925Y-39166299D01*
X802925Y-39166299D02*
X831496Y-39166299D01*
X831496Y-39166299D02*
X850544Y-39175823D01*
X850544Y-39175823D02*
X860067Y-39185347D01*
X860067Y-39185347D02*
X869591Y-39204395D01*
X869591Y-39204395D02*
X869591Y-39252014D01*
X869591Y-39252014D02*
X860067Y-39271061D01*
X860067Y-39271061D02*
X850544Y-39280585D01*
X850544Y-39280585D02*
X831496Y-39290109D01*
X831496Y-39290109D02*
X774353Y-39290109D01*
X774353Y-39290109D02*
X755306Y-39280585D01*
X755306Y-39280585D02*
X745782Y-39271061D01*
X964829Y-39290109D02*
X1002925Y-39290109D01*
X1002925Y-39290109D02*
X1021972Y-39280585D01*
X1021972Y-39280585D02*
X1031496Y-39271061D01*
X1031496Y-39271061D02*
X1050544Y-39242490D01*
X1050544Y-39242490D02*
X1060068Y-39204395D01*
X1060068Y-39204395D02*
X1060068Y-39128204D01*
X1060068Y-39128204D02*
X1050544Y-39109156D01*
X1050544Y-39109156D02*
X1041020Y-39099633D01*
X1041020Y-39099633D02*
X1021972Y-39090109D01*
X1021972Y-39090109D02*
X983877Y-39090109D01*
X983877Y-39090109D02*
X964829Y-39099633D01*
X964829Y-39099633D02*
X955306Y-39109156D01*
X955306Y-39109156D02*
X945782Y-39128204D01*
X945782Y-39128204D02*
X945782Y-39175823D01*
X945782Y-39175823D02*
X955306Y-39194871D01*
X955306Y-39194871D02*
X964829Y-39204395D01*
X964829Y-39204395D02*
X983877Y-39213918D01*
X983877Y-39213918D02*
X1021972Y-39213918D01*
X1021972Y-39213918D02*
X1041020Y-39204395D01*
X1041020Y-39204395D02*
X1050544Y-39194871D01*
X1050544Y-39194871D02*
X1060068Y-39175823D01*
X1231496Y-39156775D02*
X1231496Y-39290109D01*
X1183877Y-39080585D02*
X1136258Y-39223442D01*
X1136258Y-39223442D02*
X1260068Y-39223442D01*
X1326734Y-39090109D02*
X1326734Y-39128204D01*
X1402925Y-39090109D02*
X1402925Y-39128204D01*
X1698163Y-39366299D02*
X1688639Y-39356775D01*
X1688639Y-39356775D02*
X1669591Y-39328204D01*
X1669591Y-39328204D02*
X1660068Y-39309156D01*
X1660068Y-39309156D02*
X1650544Y-39280585D01*
X1650544Y-39280585D02*
X1641020Y-39232966D01*
X1641020Y-39232966D02*
X1641020Y-39194871D01*
X1641020Y-39194871D02*
X1650544Y-39147252D01*
X1650544Y-39147252D02*
X1660068Y-39118680D01*
X1660068Y-39118680D02*
X1669591Y-39099633D01*
X1669591Y-39099633D02*
X1688639Y-39071061D01*
X1688639Y-39071061D02*
X1698163Y-39061537D01*
X1802925Y-39175823D02*
X1783877Y-39166299D01*
X1783877Y-39166299D02*
X1774353Y-39156775D01*
X1774353Y-39156775D02*
X1764829Y-39137728D01*
X1764829Y-39137728D02*
X1764829Y-39128204D01*
X1764829Y-39128204D02*
X1774353Y-39109156D01*
X1774353Y-39109156D02*
X1783877Y-39099633D01*
X1783877Y-39099633D02*
X1802925Y-39090109D01*
X1802925Y-39090109D02*
X1841020Y-39090109D01*
X1841020Y-39090109D02*
X1860068Y-39099633D01*
X1860068Y-39099633D02*
X1869591Y-39109156D01*
X1869591Y-39109156D02*
X1879115Y-39128204D01*
X1879115Y-39128204D02*
X1879115Y-39137728D01*
X1879115Y-39137728D02*
X1869591Y-39156775D01*
X1869591Y-39156775D02*
X1860068Y-39166299D01*
X1860068Y-39166299D02*
X1841020Y-39175823D01*
X1841020Y-39175823D02*
X1802925Y-39175823D01*
X1802925Y-39175823D02*
X1783877Y-39185347D01*
X1783877Y-39185347D02*
X1774353Y-39194871D01*
X1774353Y-39194871D02*
X1764829Y-39213918D01*
X1764829Y-39213918D02*
X1764829Y-39252014D01*
X1764829Y-39252014D02*
X1774353Y-39271061D01*
X1774353Y-39271061D02*
X1783877Y-39280585D01*
X1783877Y-39280585D02*
X1802925Y-39290109D01*
X1802925Y-39290109D02*
X1841020Y-39290109D01*
X1841020Y-39290109D02*
X1860068Y-39280585D01*
X1860068Y-39280585D02*
X1869591Y-39271061D01*
X1869591Y-39271061D02*
X1879115Y-39252014D01*
X1879115Y-39252014D02*
X1879115Y-39213918D01*
X1879115Y-39213918D02*
X1869591Y-39194871D01*
X1869591Y-39194871D02*
X1860068Y-39185347D01*
X1860068Y-39185347D02*
X1841020Y-39175823D01*
X2117211Y-39290109D02*
X2117211Y-39090109D01*
X2202925Y-39290109D02*
X2202925Y-39185347D01*
X2202925Y-39185347D02*
X2193401Y-39166299D01*
X2193401Y-39166299D02*
X2174353Y-39156775D01*
X2174353Y-39156775D02*
X2145782Y-39156775D01*
X2145782Y-39156775D02*
X2126734Y-39166299D01*
X2126734Y-39166299D02*
X2117211Y-39175823D01*
X2326734Y-39290109D02*
X2307687Y-39280585D01*
X2307687Y-39280585D02*
X2298163Y-39271061D01*
X2298163Y-39271061D02*
X2288639Y-39252014D01*
X2288639Y-39252014D02*
X2288639Y-39194871D01*
X2288639Y-39194871D02*
X2298163Y-39175823D01*
X2298163Y-39175823D02*
X2307687Y-39166299D01*
X2307687Y-39166299D02*
X2326734Y-39156775D01*
X2326734Y-39156775D02*
X2355306Y-39156775D01*
X2355306Y-39156775D02*
X2374353Y-39166299D01*
X2374353Y-39166299D02*
X2383877Y-39175823D01*
X2383877Y-39175823D02*
X2393401Y-39194871D01*
X2393401Y-39194871D02*
X2393401Y-39252014D01*
X2393401Y-39252014D02*
X2383877Y-39271061D01*
X2383877Y-39271061D02*
X2374353Y-39280585D01*
X2374353Y-39280585D02*
X2355306Y-39290109D01*
X2355306Y-39290109D02*
X2326734Y-39290109D01*
X2507687Y-39290109D02*
X2488639Y-39280585D01*
X2488639Y-39280585D02*
X2479115Y-39261537D01*
X2479115Y-39261537D02*
X2479115Y-39090109D01*
X2660068Y-39280585D02*
X2641020Y-39290109D01*
X2641020Y-39290109D02*
X2602925Y-39290109D01*
X2602925Y-39290109D02*
X2583877Y-39280585D01*
X2583877Y-39280585D02*
X2574353Y-39261537D01*
X2574353Y-39261537D02*
X2574353Y-39185347D01*
X2574353Y-39185347D02*
X2583877Y-39166299D01*
X2583877Y-39166299D02*
X2602925Y-39156775D01*
X2602925Y-39156775D02*
X2641020Y-39156775D01*
X2641020Y-39156775D02*
X2660068Y-39166299D01*
X2660068Y-39166299D02*
X2669592Y-39185347D01*
X2669592Y-39185347D02*
X2669592Y-39204395D01*
X2669592Y-39204395D02*
X2574353Y-39223442D01*
X2745782Y-39280585D02*
X2764830Y-39290109D01*
X2764830Y-39290109D02*
X2802925Y-39290109D01*
X2802925Y-39290109D02*
X2821972Y-39280585D01*
X2821972Y-39280585D02*
X2831496Y-39261537D01*
X2831496Y-39261537D02*
X2831496Y-39252014D01*
X2831496Y-39252014D02*
X2821972Y-39232966D01*
X2821972Y-39232966D02*
X2802925Y-39223442D01*
X2802925Y-39223442D02*
X2774353Y-39223442D01*
X2774353Y-39223442D02*
X2755306Y-39213918D01*
X2755306Y-39213918D02*
X2745782Y-39194871D01*
X2745782Y-39194871D02*
X2745782Y-39185347D01*
X2745782Y-39185347D02*
X2755306Y-39166299D01*
X2755306Y-39166299D02*
X2774353Y-39156775D01*
X2774353Y-39156775D02*
X2802925Y-39156775D01*
X2802925Y-39156775D02*
X2821972Y-39166299D01*
X2898163Y-39366299D02*
X2907687Y-39356775D01*
X2907687Y-39356775D02*
X2926734Y-39328204D01*
X2926734Y-39328204D02*
X2936258Y-39309156D01*
X2936258Y-39309156D02*
X2945782Y-39280585D01*
X2945782Y-39280585D02*
X2955306Y-39232966D01*
X2955306Y-39232966D02*
X2955306Y-39194871D01*
X2955306Y-39194871D02*
X2945782Y-39147252D01*
X2945782Y-39147252D02*
X2936258Y-39118680D01*
X2936258Y-39118680D02*
X2926734Y-39099633D01*
X2926734Y-39099633D02*
X2907687Y-39071061D01*
X2907687Y-39071061D02*
X2898163Y-39061537D01*
D13*
X-1891837Y-39498688D02*
X-1891837Y-39426562D01*
X-1963963Y-39426562D01*
X-1963963Y-39498688D01*
X-1891837Y-39498688D01*
D10*
X-1511361Y-39554109D02*
X-1625647Y-39554109D01*
X-1568504Y-39554109D02*
X-1568504Y-39354109D01*
X-1568504Y-39354109D02*
X-1587552Y-39382680D01*
X-1587552Y-39382680D02*
X-1606599Y-39401728D01*
X-1606599Y-39401728D02*
X-1625647Y-39411252D01*
X-1425647Y-39535061D02*
X-1416123Y-39544585D01*
X-1416123Y-39544585D02*
X-1425647Y-39554109D01*
X-1425647Y-39554109D02*
X-1435171Y-39544585D01*
X-1435171Y-39544585D02*
X-1425647Y-39535061D01*
X-1425647Y-39535061D02*
X-1425647Y-39554109D01*
X-1292314Y-39354109D02*
X-1273266Y-39354109D01*
X-1273266Y-39354109D02*
X-1254218Y-39363633D01*
X-1254218Y-39363633D02*
X-1244695Y-39373156D01*
X-1244695Y-39373156D02*
X-1235171Y-39392204D01*
X-1235171Y-39392204D02*
X-1225647Y-39430299D01*
X-1225647Y-39430299D02*
X-1225647Y-39477918D01*
X-1225647Y-39477918D02*
X-1235171Y-39516014D01*
X-1235171Y-39516014D02*
X-1244695Y-39535061D01*
X-1244695Y-39535061D02*
X-1254218Y-39544585D01*
X-1254218Y-39544585D02*
X-1273266Y-39554109D01*
X-1273266Y-39554109D02*
X-1292314Y-39554109D01*
X-1292314Y-39554109D02*
X-1311361Y-39544585D01*
X-1311361Y-39544585D02*
X-1320885Y-39535061D01*
X-1320885Y-39535061D02*
X-1330409Y-39516014D01*
X-1330409Y-39516014D02*
X-1339933Y-39477918D01*
X-1339933Y-39477918D02*
X-1339933Y-39430299D01*
X-1339933Y-39430299D02*
X-1330409Y-39392204D01*
X-1330409Y-39392204D02*
X-1320885Y-39373156D01*
X-1320885Y-39373156D02*
X-1311361Y-39363633D01*
X-1311361Y-39363633D02*
X-1292314Y-39354109D01*
X-1149456Y-39373156D02*
X-1139933Y-39363633D01*
X-1139933Y-39363633D02*
X-1120885Y-39354109D01*
X-1120885Y-39354109D02*
X-1073266Y-39354109D01*
X-1073266Y-39354109D02*
X-1054218Y-39363633D01*
X-1054218Y-39363633D02*
X-1044694Y-39373156D01*
X-1044694Y-39373156D02*
X-1035171Y-39392204D01*
X-1035171Y-39392204D02*
X-1035171Y-39411252D01*
X-1035171Y-39411252D02*
X-1044694Y-39439823D01*
X-1044694Y-39439823D02*
X-1158980Y-39554109D01*
X-1158980Y-39554109D02*
X-1035171Y-39554109D01*
X-911361Y-39354109D02*
X-892313Y-39354109D01*
X-892313Y-39354109D02*
X-873266Y-39363633D01*
X-873266Y-39363633D02*
X-863742Y-39373156D01*
X-863742Y-39373156D02*
X-854218Y-39392204D01*
X-854218Y-39392204D02*
X-844694Y-39430299D01*
X-844694Y-39430299D02*
X-844694Y-39477918D01*
X-844694Y-39477918D02*
X-854218Y-39516014D01*
X-854218Y-39516014D02*
X-863742Y-39535061D01*
X-863742Y-39535061D02*
X-873266Y-39544585D01*
X-873266Y-39544585D02*
X-892313Y-39554109D01*
X-892313Y-39554109D02*
X-911361Y-39554109D01*
X-911361Y-39554109D02*
X-930409Y-39544585D01*
X-930409Y-39544585D02*
X-939933Y-39535061D01*
X-939933Y-39535061D02*
X-949456Y-39516014D01*
X-949456Y-39516014D02*
X-958980Y-39477918D01*
X-958980Y-39477918D02*
X-958980Y-39430299D01*
X-958980Y-39430299D02*
X-949456Y-39392204D01*
X-949456Y-39392204D02*
X-939933Y-39373156D01*
X-939933Y-39373156D02*
X-930409Y-39363633D01*
X-930409Y-39363633D02*
X-911361Y-39354109D01*
X-758980Y-39554109D02*
X-758980Y-39420775D01*
X-758980Y-39439823D02*
X-749456Y-39430299D01*
X-749456Y-39430299D02*
X-730409Y-39420775D01*
X-730409Y-39420775D02*
X-701837Y-39420775D01*
X-701837Y-39420775D02*
X-682790Y-39430299D01*
X-682790Y-39430299D02*
X-673266Y-39449347D01*
X-673266Y-39449347D02*
X-673266Y-39554109D01*
X-673266Y-39449347D02*
X-663742Y-39430299D01*
X-663742Y-39430299D02*
X-644695Y-39420775D01*
X-644695Y-39420775D02*
X-616123Y-39420775D01*
X-616123Y-39420775D02*
X-597075Y-39430299D01*
X-597075Y-39430299D02*
X-587552Y-39449347D01*
X-587552Y-39449347D02*
X-587552Y-39554109D01*
X-492313Y-39554109D02*
X-492313Y-39420775D01*
X-492313Y-39439823D02*
X-482790Y-39430299D01*
X-482790Y-39430299D02*
X-463742Y-39420775D01*
X-463742Y-39420775D02*
X-435171Y-39420775D01*
X-435171Y-39420775D02*
X-416123Y-39430299D01*
X-416123Y-39430299D02*
X-406599Y-39449347D01*
X-406599Y-39449347D02*
X-406599Y-39554109D01*
X-406599Y-39449347D02*
X-397075Y-39430299D01*
X-397075Y-39430299D02*
X-378028Y-39420775D01*
X-378028Y-39420775D02*
X-349456Y-39420775D01*
X-349456Y-39420775D02*
X-330409Y-39430299D01*
X-330409Y-39430299D02*
X-320885Y-39449347D01*
X-320885Y-39449347D02*
X-320885Y-39554109D01*
X69591Y-39344585D02*
X-101837Y-39601728D01*
X326734Y-39354109D02*
X345782Y-39354109D01*
X345782Y-39354109D02*
X364829Y-39363633D01*
X364829Y-39363633D02*
X374353Y-39373156D01*
X374353Y-39373156D02*
X383877Y-39392204D01*
X383877Y-39392204D02*
X393401Y-39430299D01*
X393401Y-39430299D02*
X393401Y-39477918D01*
X393401Y-39477918D02*
X383877Y-39516014D01*
X383877Y-39516014D02*
X374353Y-39535061D01*
X374353Y-39535061D02*
X364829Y-39544585D01*
X364829Y-39544585D02*
X345782Y-39554109D01*
X345782Y-39554109D02*
X326734Y-39554109D01*
X326734Y-39554109D02*
X307687Y-39544585D01*
X307687Y-39544585D02*
X298163Y-39535061D01*
X298163Y-39535061D02*
X288639Y-39516014D01*
X288639Y-39516014D02*
X279115Y-39477918D01*
X279115Y-39477918D02*
X279115Y-39430299D01*
X279115Y-39430299D02*
X288639Y-39392204D01*
X288639Y-39392204D02*
X298163Y-39373156D01*
X298163Y-39373156D02*
X307687Y-39363633D01*
X307687Y-39363633D02*
X326734Y-39354109D01*
X479115Y-39535061D02*
X488639Y-39544585D01*
X488639Y-39544585D02*
X479115Y-39554109D01*
X479115Y-39554109D02*
X469591Y-39544585D01*
X469591Y-39544585D02*
X479115Y-39535061D01*
X479115Y-39535061D02*
X479115Y-39554109D01*
X612448Y-39354109D02*
X631496Y-39354109D01*
X631496Y-39354109D02*
X650544Y-39363633D01*
X650544Y-39363633D02*
X660068Y-39373156D01*
X660068Y-39373156D02*
X669591Y-39392204D01*
X669591Y-39392204D02*
X679115Y-39430299D01*
X679115Y-39430299D02*
X679115Y-39477918D01*
X679115Y-39477918D02*
X669591Y-39516014D01*
X669591Y-39516014D02*
X660068Y-39535061D01*
X660068Y-39535061D02*
X650544Y-39544585D01*
X650544Y-39544585D02*
X631496Y-39554109D01*
X631496Y-39554109D02*
X612448Y-39554109D01*
X612448Y-39554109D02*
X593401Y-39544585D01*
X593401Y-39544585D02*
X583877Y-39535061D01*
X583877Y-39535061D02*
X574353Y-39516014D01*
X574353Y-39516014D02*
X564829Y-39477918D01*
X564829Y-39477918D02*
X564829Y-39430299D01*
X564829Y-39430299D02*
X574353Y-39392204D01*
X574353Y-39392204D02*
X583877Y-39373156D01*
X583877Y-39373156D02*
X593401Y-39363633D01*
X593401Y-39363633D02*
X612448Y-39354109D01*
X850544Y-39420775D02*
X850544Y-39554109D01*
X802925Y-39344585D02*
X755306Y-39487442D01*
X755306Y-39487442D02*
X879115Y-39487442D01*
X993401Y-39354109D02*
X1012448Y-39354109D01*
X1012448Y-39354109D02*
X1031496Y-39363633D01*
X1031496Y-39363633D02*
X1041020Y-39373156D01*
X1041020Y-39373156D02*
X1050544Y-39392204D01*
X1050544Y-39392204D02*
X1060068Y-39430299D01*
X1060068Y-39430299D02*
X1060068Y-39477918D01*
X1060068Y-39477918D02*
X1050544Y-39516014D01*
X1050544Y-39516014D02*
X1041020Y-39535061D01*
X1041020Y-39535061D02*
X1031496Y-39544585D01*
X1031496Y-39544585D02*
X1012448Y-39554109D01*
X1012448Y-39554109D02*
X993401Y-39554109D01*
X993401Y-39554109D02*
X974353Y-39544585D01*
X974353Y-39544585D02*
X964829Y-39535061D01*
X964829Y-39535061D02*
X955306Y-39516014D01*
X955306Y-39516014D02*
X945782Y-39477918D01*
X945782Y-39477918D02*
X945782Y-39430299D01*
X945782Y-39430299D02*
X955306Y-39392204D01*
X955306Y-39392204D02*
X964829Y-39373156D01*
X964829Y-39373156D02*
X974353Y-39363633D01*
X974353Y-39363633D02*
X993401Y-39354109D01*
X1136258Y-39373156D02*
X1145782Y-39363633D01*
X1145782Y-39363633D02*
X1164829Y-39354109D01*
X1164829Y-39354109D02*
X1212449Y-39354109D01*
X1212449Y-39354109D02*
X1231496Y-39363633D01*
X1231496Y-39363633D02*
X1241020Y-39373156D01*
X1241020Y-39373156D02*
X1250544Y-39392204D01*
X1250544Y-39392204D02*
X1250544Y-39411252D01*
X1250544Y-39411252D02*
X1241020Y-39439823D01*
X1241020Y-39439823D02*
X1126734Y-39554109D01*
X1126734Y-39554109D02*
X1250544Y-39554109D01*
X1326734Y-39354109D02*
X1326734Y-39392204D01*
X1402925Y-39354109D02*
X1402925Y-39392204D01*
X1698163Y-39630299D02*
X1688639Y-39620775D01*
X1688639Y-39620775D02*
X1669591Y-39592204D01*
X1669591Y-39592204D02*
X1660068Y-39573156D01*
X1660068Y-39573156D02*
X1650544Y-39544585D01*
X1650544Y-39544585D02*
X1641020Y-39496966D01*
X1641020Y-39496966D02*
X1641020Y-39458871D01*
X1641020Y-39458871D02*
X1650544Y-39411252D01*
X1650544Y-39411252D02*
X1660068Y-39382680D01*
X1660068Y-39382680D02*
X1669591Y-39363633D01*
X1669591Y-39363633D02*
X1688639Y-39335061D01*
X1688639Y-39335061D02*
X1698163Y-39325537D01*
X1860068Y-39420775D02*
X1860068Y-39554109D01*
X1812448Y-39344585D02*
X1764829Y-39487442D01*
X1764829Y-39487442D02*
X1888639Y-39487442D01*
X2002925Y-39354109D02*
X2021972Y-39354109D01*
X2021972Y-39354109D02*
X2041020Y-39363633D01*
X2041020Y-39363633D02*
X2050544Y-39373156D01*
X2050544Y-39373156D02*
X2060068Y-39392204D01*
X2060068Y-39392204D02*
X2069591Y-39430299D01*
X2069591Y-39430299D02*
X2069591Y-39477918D01*
X2069591Y-39477918D02*
X2060068Y-39516014D01*
X2060068Y-39516014D02*
X2050544Y-39535061D01*
X2050544Y-39535061D02*
X2041020Y-39544585D01*
X2041020Y-39544585D02*
X2021972Y-39554109D01*
X2021972Y-39554109D02*
X2002925Y-39554109D01*
X2002925Y-39554109D02*
X1983877Y-39544585D01*
X1983877Y-39544585D02*
X1974353Y-39535061D01*
X1974353Y-39535061D02*
X1964829Y-39516014D01*
X1964829Y-39516014D02*
X1955306Y-39477918D01*
X1955306Y-39477918D02*
X1955306Y-39430299D01*
X1955306Y-39430299D02*
X1964829Y-39392204D01*
X1964829Y-39392204D02*
X1974353Y-39373156D01*
X1974353Y-39373156D02*
X1983877Y-39363633D01*
X1983877Y-39363633D02*
X2002925Y-39354109D01*
X2307687Y-39554109D02*
X2307687Y-39354109D01*
X2393401Y-39554109D02*
X2393401Y-39449347D01*
X2393401Y-39449347D02*
X2383877Y-39430299D01*
X2383877Y-39430299D02*
X2364830Y-39420775D01*
X2364830Y-39420775D02*
X2336258Y-39420775D01*
X2336258Y-39420775D02*
X2317211Y-39430299D01*
X2317211Y-39430299D02*
X2307687Y-39439823D01*
X2517211Y-39554109D02*
X2498163Y-39544585D01*
X2498163Y-39544585D02*
X2488639Y-39535061D01*
X2488639Y-39535061D02*
X2479115Y-39516014D01*
X2479115Y-39516014D02*
X2479115Y-39458871D01*
X2479115Y-39458871D02*
X2488639Y-39439823D01*
X2488639Y-39439823D02*
X2498163Y-39430299D01*
X2498163Y-39430299D02*
X2517211Y-39420775D01*
X2517211Y-39420775D02*
X2545782Y-39420775D01*
X2545782Y-39420775D02*
X2564830Y-39430299D01*
X2564830Y-39430299D02*
X2574353Y-39439823D01*
X2574353Y-39439823D02*
X2583877Y-39458871D01*
X2583877Y-39458871D02*
X2583877Y-39516014D01*
X2583877Y-39516014D02*
X2574353Y-39535061D01*
X2574353Y-39535061D02*
X2564830Y-39544585D01*
X2564830Y-39544585D02*
X2545782Y-39554109D01*
X2545782Y-39554109D02*
X2517211Y-39554109D01*
X2698163Y-39554109D02*
X2679115Y-39544585D01*
X2679115Y-39544585D02*
X2669592Y-39525537D01*
X2669592Y-39525537D02*
X2669592Y-39354109D01*
X2850544Y-39544585D02*
X2831496Y-39554109D01*
X2831496Y-39554109D02*
X2793401Y-39554109D01*
X2793401Y-39554109D02*
X2774353Y-39544585D01*
X2774353Y-39544585D02*
X2764830Y-39525537D01*
X2764830Y-39525537D02*
X2764830Y-39449347D01*
X2764830Y-39449347D02*
X2774353Y-39430299D01*
X2774353Y-39430299D02*
X2793401Y-39420775D01*
X2793401Y-39420775D02*
X2831496Y-39420775D01*
X2831496Y-39420775D02*
X2850544Y-39430299D01*
X2850544Y-39430299D02*
X2860068Y-39449347D01*
X2860068Y-39449347D02*
X2860068Y-39468395D01*
X2860068Y-39468395D02*
X2764830Y-39487442D01*
X2936258Y-39544585D02*
X2955306Y-39554109D01*
X2955306Y-39554109D02*
X2993401Y-39554109D01*
X2993401Y-39554109D02*
X3012449Y-39544585D01*
X3012449Y-39544585D02*
X3021972Y-39525537D01*
X3021972Y-39525537D02*
X3021972Y-39516014D01*
X3021972Y-39516014D02*
X3012449Y-39496966D01*
X3012449Y-39496966D02*
X2993401Y-39487442D01*
X2993401Y-39487442D02*
X2964830Y-39487442D01*
X2964830Y-39487442D02*
X2945782Y-39477918D01*
X2945782Y-39477918D02*
X2936258Y-39458871D01*
X2936258Y-39458871D02*
X2936258Y-39449347D01*
X2936258Y-39449347D02*
X2945782Y-39430299D01*
X2945782Y-39430299D02*
X2964830Y-39420775D01*
X2964830Y-39420775D02*
X2993401Y-39420775D01*
X2993401Y-39420775D02*
X3012449Y-39430299D01*
X3088639Y-39630299D02*
X3098163Y-39620775D01*
X3098163Y-39620775D02*
X3117211Y-39592204D01*
X3117211Y-39592204D02*
X3126734Y-39573156D01*
X3126734Y-39573156D02*
X3136258Y-39544585D01*
X3136258Y-39544585D02*
X3145782Y-39496966D01*
X3145782Y-39496966D02*
X3145782Y-39458871D01*
X3145782Y-39458871D02*
X3136258Y-39411252D01*
X3136258Y-39411252D02*
X3126734Y-39382680D01*
X3126734Y-39382680D02*
X3117211Y-39363633D01*
X3117211Y-39363633D02*
X3098163Y-39335061D01*
X3098163Y-39335061D02*
X3088639Y-39325537D01*
M02*
